<?xml version="1.0" standalone="no"?>
<!DOCTYPE svg PUBLIC "-//W3C//DTD SVG 20010904//EN"
 "http://www.w3.org/TR/2001/REC-SVG-20010904/DTD/svg10.dtd">
<svg version="1.0" xmlns="http://www.w3.org/2000/svg"
 width="512.000000pt" height="512.000000pt" viewBox="0 0 512.000000 512.000000"
 preserveAspectRatio="xMidYMid meet">
<metadata>
Created by potrace 1.14, written by Peter Selinger 2001-2017
</metadata>
<g transform="translate(0.000000,512.000000) scale(0.100000,-0.100000)"
fill="#000000" stroke="none">
<path d="M4613 5100 c-18 -10 -40 -34 -49 -52 -15 -29 -15 -41 -3 -133 8 -55
13 -154 12 -220 -3 -249 -84 -421 -253 -533 l-59 -40 -63 23 c-183 66 -417 47
-608 -50 -138 -70 -324 -239 -417 -377 -44 -66 -55 -92 -77 -190 -296 -1267
-1165 -2306 -2481 -2966 -146 -73 -342 -160 -410 -182 -111 -35 -152 -79 -142
-153 9 -70 42 -92 186 -126 740 -175 1477 -116 2155 174 663 283 1298 791
1800 1439 279 360 515 825 605 1191 50 207 61 428 27 580 -36 165 -157 362
-281 457 l-53 42 77 75 c154 154 228 340 238 606 6 145 -17 353 -43 393 -20
30 -73 62 -104 62 -14 0 -39 -9 -57 -20z m-512 -1184 c198 -61 369 -197 448
-353 12 -24 31 -82 42 -130 18 -75 20 -105 15 -198 -4 -60 -10 -127 -14 -148
l-7 -38 -44 100 c-60 139 -194 363 -244 410 -16 14 -42 25 -69 28 -39 4 -52
-1 -139 -55 l-95 -59 0 138 c1 156 -8 182 -77 208 -78 29 -140 -7 -190 -113
-25 -53 -29 -56 -83 -72 -44 -12 -76 -15 -133 -10 -41 4 -79 10 -84 13 -5 3
20 35 54 70 201 204 410 274 620 209z m-642 -530 c80 -12 123 -13 184 -5 44 5
81 8 83 6 2 -2 -1 -39 -7 -82 -12 -86 -7 -115 22 -157 22 -31 84 -54 121 -45
13 4 86 45 163 93 76 47 145 88 151 91 14 5 142 -245 174 -342 12 -37 25 -101
29 -144 7 -82 28 -130 62 -138 10 -3 19 -7 19 -9 0 -1 -27 -61 -59 -133 -277
-609 -844 -1251 -1481 -1678 -563 -377 -1135 -570 -1745 -590 -167 -5 -514 10
-551 24 -10 4 42 35 144 88 525 272 936 565 1330 949 261 255 444 474 627 751
273 413 434 771 580 1288 13 46 20 57 33 53 10 -3 64 -12 121 -20z"/>
<path d="M3320 2353 c-38 -14 -71 -60 -95 -134 -61 -183 -227 -468 -386 -666
-88 -109 -327 -345 -433 -428 -49 -39 -134 -101 -190 -140 -103 -72 -146 -120
-146 -162 0 -67 61 -133 123 -133 37 0 72 19 192 103 241 169 499 409 665 617
179 225 336 500 412 722 32 94 32 98 18 140 -23 67 -97 104 -160 81z"/>
</g>
</svg>
