<svg width="500" height="500" viewBox="0 0 500 500" fill="none" xmlns="http://www.w3.org/2000/svg">
<rect width="500" height="500" fill="url(#paint0_linear_401_116)"/>
<g clip-path="url(#clip0_401_116)">
<path d="M335 332.529H184.742C174.951 332.529 167.014 324.577 167.014 314.768C167.014 304.959 174.951 297.007 184.742 297.007H334.999C327.169 307.548 327.169 321.988 335 332.529Z" fill="#FFF7E8"/>
<path d="M335 297.007H319.375C311.544 307.548 311.544 321.988 319.375 332.529H335C327.169 321.988 327.169 307.548 335 297.007Z" fill="#FFF1D6"/>
<path d="M339.991 347.07H185.172C167.394 347.07 152.93 332.58 152.93 314.768C152.93 296.956 167.394 282.466 185.172 282.466H339.991C343.901 282.466 347.07 285.641 347.07 289.559C347.07 293.476 343.901 296.652 339.991 296.652H185.172C175.201 296.652 167.089 304.779 167.089 314.768C167.089 324.758 175.201 332.885 185.172 332.885H339.991C343.901 332.885 347.07 336.061 347.07 339.978C347.07 343.895 343.901 347.07 339.991 347.07Z" fill="#FF7893"/>
<path d="M335 202.993H184.742C174.951 202.993 167.014 195.041 167.014 185.232C167.014 175.423 174.951 167.471 184.742 167.471H334.999C327.169 178.013 327.169 192.452 335 202.993Z" fill="#FFF7E8"/>
<path d="M335 167.471H319.375C311.544 178.013 311.544 192.452 319.375 202.993H335C327.169 192.452 327.169 178.013 335 167.471Z" fill="#FFF1D6"/>
<path d="M339.991 217.535H185.172C167.394 217.535 152.93 203.044 152.93 185.232C152.93 167.42 167.394 152.93 185.172 152.93H339.991C343.901 152.93 347.07 156.105 347.07 160.022C347.07 163.939 343.901 167.115 339.991 167.115H185.172C175.201 167.115 167.089 175.242 167.089 185.232C167.089 195.221 175.201 203.348 185.172 203.348H339.991C343.901 203.348 347.07 206.524 347.07 210.441C347.07 214.359 343.901 217.535 339.991 217.535Z" fill="#FF9E5E"/>
<path d="M165 232.402H315.258C325.049 232.402 332.986 240.354 332.986 250.163C332.986 259.972 325.049 267.924 315.258 267.924H165C172.831 257.383 172.831 242.943 165 232.402Z" fill="#FFF7E8"/>
<path d="M160.009 217.861H314.828C332.606 217.861 347.07 232.351 347.07 250.163C347.07 267.975 332.606 282.465 314.828 282.465H160.009C156.099 282.465 152.93 279.289 152.93 275.372C152.93 271.455 156.099 268.279 160.009 268.279H314.828C324.799 268.279 332.911 260.152 332.911 250.162C332.911 240.173 324.799 232.046 314.828 232.046H160.009C156.099 232.046 152.93 228.87 152.93 224.953C152.93 221.036 156.099 217.861 160.009 217.861Z" fill="#59A1A5"/>
<path d="M314.828 217.861H299.203C313.449 217.861 325.559 227.169 329.812 240.031C331.767 242.925 332.911 246.412 332.911 250.163C332.911 253.913 331.767 257.401 329.812 260.295C325.559 273.157 313.449 282.465 299.203 282.465H314.828C332.606 282.465 347.07 267.975 347.07 250.163C347.07 232.351 332.606 217.861 314.828 217.861Z" fill="#419296"/>
<path d="M273.079 250.163H298.812V310.887L286.171 298.675L273.079 310.887V250.163Z" fill="#FFD88F"/>
<path d="M285.945 250.163V298.886L286.171 298.675L298.812 310.887V250.163H285.945Z" fill="#FFC963"/>
<path d="M350 210.441C350 204.915 345.51 200.419 339.991 200.419H336.762C333.681 195.934 332.056 190.705 332.056 185.232C332.056 179.759 333.681 174.53 336.762 170.045H339.991C352.872 170.045 352.961 150 339.991 150H224.982C221.195 150 221.195 155.859 224.982 155.859H339.991C345.185 155.859 345.421 164.185 339.991 164.185H185.172C173.586 164.185 164.159 173.627 164.159 185.232C164.159 196.837 173.586 206.279 185.172 206.279H339.991C345.285 206.279 345.336 214.93 339.991 214.93H314.828H185.172C177.385 214.93 170.033 211.819 164.472 206.17C158.918 200.529 155.859 193.093 155.859 185.232C155.859 169.036 169.009 155.859 185.172 155.859H209.372C213.16 155.859 213.16 150 209.372 150H185.172C165.778 150 150 165.805 150 185.232C150 194.64 153.657 203.536 160.296 210.281C162.03 212.042 163.912 213.593 165.91 214.93H160.009C154.49 214.931 150 219.427 150 224.954C150 230.48 154.49 234.976 160.009 234.976H163.238C166.319 239.461 167.944 244.689 167.944 250.163C167.944 255.637 166.319 260.865 163.238 265.35H160.009C154.49 265.35 150 269.846 150 275.373C150 280.899 154.49 285.395 160.009 285.395H165.772C156.275 291.71 150 302.518 150 314.768C150 334.195 165.778 350 185.172 350H339.991C352.872 350 352.961 329.955 339.991 329.955H336.762C333.681 325.47 332.056 320.241 332.056 314.768C332.056 309.295 333.681 304.066 336.762 299.581H339.991C352.872 299.581 352.961 279.536 339.991 279.536H334.228C343.725 273.22 350 262.412 350 250.163C350 237.913 343.725 227.105 334.228 220.79H339.991C345.416 220.79 350 216.051 350 210.441ZM170.019 185.232C170.019 176.858 176.817 170.045 185.172 170.045H329.929C327.477 174.704 326.197 179.871 326.197 185.232C326.197 190.592 327.477 195.759 329.929 200.419H185.172C176.816 200.419 170.019 193.606 170.019 185.232ZM170.071 234.976H314.828C323.184 234.976 329.981 241.789 329.981 250.163C329.981 258.537 323.183 265.35 314.828 265.35H301.741V253.093H308.744C312.532 253.093 312.532 247.233 308.744 247.233H207.846C204.058 247.233 204.058 253.093 207.846 253.093H270.15V265.35H170.071C172.523 260.691 173.803 255.523 173.803 250.163C173.803 244.802 172.522 239.636 170.071 234.976ZM276.009 253.093H295.882V303.983L288.207 296.568C287.086 295.485 285.313 295.47 284.173 296.533L276.009 304.148V253.093H276.009ZM160.009 279.536C157.721 279.536 155.859 277.668 155.859 275.373C155.859 273.077 157.721 271.21 160.009 271.21H270.15V279.536H160.009ZM329.929 329.955H294.531C290.743 329.955 290.743 335.814 294.531 335.814H339.991C345.185 335.814 345.421 344.141 339.991 344.141H185.172C169.009 344.141 155.859 330.964 155.859 314.768C155.859 298.572 169.009 285.395 185.172 285.395H270.15V293.721H185.172C173.586 293.721 164.159 303.163 164.159 314.768C164.159 326.373 173.586 335.814 185.172 335.814H278.896C282.684 335.814 282.684 329.955 278.896 329.955H185.172C176.816 329.955 170.019 323.142 170.019 314.768C170.019 306.394 176.817 299.581 185.172 299.581H270.15V310.887C270.15 313.398 273.241 314.743 275.078 313.029L286.136 302.714L296.776 312.993C298.644 314.8 301.741 313.391 301.741 310.886V299.58H329.929C327.478 304.24 326.197 309.407 326.197 314.768C326.197 320.128 327.478 325.295 329.929 329.955ZM339.991 285.395C345.185 285.395 345.421 293.721 339.991 293.721H301.741V285.395H314.828H339.991ZM344.141 250.163C344.141 266.359 330.991 279.536 314.828 279.536H301.741V271.21H314.828C326.414 271.21 335.841 261.768 335.841 250.163C335.841 238.558 326.414 229.116 314.828 229.116H160.009C157.721 229.116 155.859 227.249 155.859 224.954C155.859 222.658 157.721 220.79 160.009 220.79H185.172H314.828C330.991 220.79 344.141 233.967 344.141 250.163Z" fill="black"/>
</g>
<defs>
<linearGradient id="paint0_linear_401_116" x1="0" y1="250" x2="500" y2="250" gradientUnits="userSpaceOnUse">
<stop stop-color="#E4DCCF"/>
<stop offset="1" stop-color="#D9CDBE"/>
</linearGradient>
<clipPath id="clip0_401_116">
<rect width="200" height="200" fill="white" transform="translate(150 150)"/>
</clipPath>
</defs>
</svg>
