<svg xmlns="http://www.w3.org/2000/svg" width="375" viewBox="0 0 375 375" height="375" version="1.0"><g fill="#FFF"><g><g><path d="M 5.054688 -8.738281 C 5.683594 -10.175781 6.414062 -11.300781 7.355469 -12.316406 C 8.027344 -13.019531 8.6875 -13.789062 9.035156 -14.792969 C 8.910156 -15.214844 8.730469 -15.699219 8.582031 -16.226562 C 7.101562 -17.257812 5.863281 -18.710938 4.214844 -19.632812 C 3.625 -19.953125 3.148438 -20.449219 2.699219 -20.988281 C 1.910156 -21.902344 0.890625 -22.507812 -0.246094 -22.941406 C -0.324219 -22.960938 -0.421875 -22.902344 -0.496094 -22.886719 C -1.078125 -22.46875 -1.304688 -21.785156 -1.621094 -21.160156 C -1.707031 -21.03125 -1.660156 -20.816406 -1.679688 -20.550781 C -1.414062 -20.347656 -1.101562 -20.113281 -0.765625 -19.925781 C -0.367188 -19.636719 0.121094 -19.441406 0.421875 -19.054688 C 1.378906 -17.878906 2.679688 -17.183594 3.832031 -16.308594 C 4.324219 -15.925781 4.714844 -15.488281 5.132812 -15.089844 C 5.234375 -14.964844 5.207031 -14.734375 5.261719 -14.484375 C 4.390625 -13.480469 3.625 -12.351562 2.898438 -11.191406 C 2.3125 -10.25 1.714844 -9.378906 0.855469 -8.675781 C 0.695312 -8.566406 0.589844 -8.359375 0.46875 -8.222656 C 0.1875 -7.789062 0.0976562 -7.324219 0.351562 -6.820312 C 0.792969 -6.316406 1.363281 -5.914062 2.109375 -5.734375 C 3.128906 -6.734375 4.132812 -7.800781 5.054688 -8.738281 Z M 5.054688 -8.738281" transform="translate(39.76 70.291)"/></g></g></g><g fill="#FFF"><g><g><path d="M 2.984375 -1.640625 C 2.460938 -3.648438 2.097656 -5.15625 1.890625 -6.15625 C 1.835938 -6.488281 1.726562 -6.835938 1.5625 -7.203125 C 1.175781 -8.015625 0.445312 -8.878906 -0.625 -9.796875 C -0.769531 -9.921875 -1.035156 -9.988281 -1.421875 -10 C -1.816406 -10.007812 -2.101562 -10.019531 -2.28125 -10.03125 C -2.6875 -10.082031 -2.941406 -10.21875 -3.046875 -10.4375 C -3.128906 -10.625 -3.082031 -10.882812 -2.90625 -11.21875 C -2.414062 -12.09375 -2.175781 -12.921875 -2.1875 -13.703125 C -2.207031 -14.484375 -2.40625 -15.28125 -2.78125 -16.09375 C -2.988281 -16.539062 -3.226562 -16.96875 -3.5 -17.375 C -3.757812 -17.800781 -4.242188 -18.523438 -4.953125 -19.546875 C -5.847656 -20.703125 -6.484375 -21.675781 -6.859375 -22.46875 C -7.984375 -24.90625 -7.3125 -26.992188 -4.84375 -28.734375 C -4.582031 -28.910156 -4.390625 -29.023438 -4.265625 -29.078125 C -3.648438 -29.367188 -2.941406 -29.410156 -2.140625 -29.203125 C -1.859375 -29.117188 -1.675781 -28.988281 -1.59375 -28.8125 C -1.519531 -28.65625 -1.519531 -28.484375 -1.59375 -28.296875 C -1.664062 -28.117188 -1.804688 -27.960938 -2.015625 -27.828125 C -2.898438 -27.171875 -3.488281 -26.460938 -3.78125 -25.703125 C -4.082031 -24.941406 -4.046875 -24.164062 -3.671875 -23.375 C -3.617188 -23.257812 -3.515625 -23.078125 -3.359375 -22.828125 C -2.753906 -21.953125 -2.300781 -21.3125 -2 -20.90625 C -1.132812 -19.75 -0.457031 -18.753906 0.03125 -17.921875 C 0.46875 -17.171875 0.773438 -16.597656 0.953125 -16.203125 C 1.472656 -15.078125 1.585938 -14.015625 1.296875 -13.015625 C 1.242188 -12.785156 1.273438 -12.539062 1.390625 -12.28125 C 1.453125 -12.144531 1.53125 -12.039062 1.625 -11.96875 C 3 -11.082031 4.03125 -9.894531 4.71875 -8.40625 C 5.195312 -7.375 5.550781 -6.203125 5.78125 -4.890625 C 5.9375 -4.171875 6.125 -3.578125 6.34375 -3.109375 C 6.75 -2.234375 7.363281 -1.394531 8.1875 -0.59375 C 8.28125 -0.488281 8.472656 -0.394531 8.765625 -0.3125 C 9.054688 -0.238281 9.25 -0.175781 9.34375 -0.125 C 9.40625 -0.0820312 9.554688 0 9.796875 0.125 C 10.046875 0.25 10.160156 0.375 10.140625 0.5 C 10.097656 0.675781 9.992188 0.878906 9.828125 1.109375 C 9.660156 1.335938 9.515625 1.472656 9.390625 1.515625 C 9.234375 1.535156 8.941406 1.570312 8.515625 1.625 C 8.085938 1.675781 7.707031 1.703125 7.375 1.703125 C 7.039062 1.703125 6.773438 1.648438 6.578125 1.546875 C 5.035156 0.804688 4.03125 -0.0664062 3.5625 -1.078125 C 3.5 -1.210938 3.414062 -1.453125 3.3125 -1.796875 Z M 2.984375 -1.640625" transform="translate(290.912 145.595)"/></g></g></g><g fill="#FFF"><g><g><path d="M 2.117188 -1.308594 C 1.972656 -0.707031 1.847656 -0.167969 2.238281 0.292969 C 2.527344 0.628906 2.933594 0.757812 3.40625 0.738281 C 4.648438 0.160156 4.648438 0.160156 5.828125 -1.300781 C 6.027344 -1.992188 6.210938 -2.785156 6.726562 -3.398438 C 7.183594 -3.925781 7.097656 -4.550781 6.972656 -5.148438 C 7.414062 -5.613281 7.589844 -6.207031 7.730469 -6.808594 C 7.902344 -7.539062 8.363281 -8.066406 8.972656 -8.523438 C 9.964844 -8.757812 10.957031 -9.128906 12.023438 -9.109375 C 12.59375 -9.109375 13.054688 -9.367188 13.4375 -9.714844 C 13.5625 -9.816406 13.640625 -10 13.746094 -10.175781 C 13.382812 -10.761719 13.019531 -11.351562 12.6875 -11.929688 C 12.363281 -11.972656 12.097656 -11.972656 11.804688 -12.007812 C 11.296875 -12.5625 10.335938 -12.585938 10.035156 -13.730469 C 9.972656 -14.179688 9.910156 -14.898438 9.859375 -15.542969 C 9.953125 -16.359375 10.210938 -17.167969 10.128906 -17.957031 C 10.070312 -18.839844 10.335938 -19.683594 10.277344 -20.566406 C 9.859375 -22.339844 9.859375 -22.339844 8.972656 -23.6875 C 8.492188 -24.066406 8.144531 -24.582031 7.472656 -24.710938 C 7.324219 -24.644531 7.171875 -24.578125 7.046875 -24.472656 C 6.792969 -24.234375 6.535156 -23.992188 6.300781 -23.714844 C 6.097656 -23.425781 6.046875 -23.070312 6.195312 -22.703125 C 6.300781 -22.578125 6.394531 -22.417969 6.507812 -22.328125 C 7.324219 -21.664062 7.769531 -20.859375 7.617188 -19.789062 C 7.785156 -19.078125 7.691406 -18.398438 7.558594 -17.695312 C 7.414062 -17.09375 7.234375 -16.464844 7.328125 -15.875 C 7.394531 -15.15625 7.261719 -14.453125 7.308594 -13.804688 C 7.605469 -12.929688 7.882812 -12.128906 8.167969 -11.359375 C 7.332031 -10.21875 6.082031 -9.609375 5.40625 -8.296875 C 5.015625 -6.78125 4.570312 -5.179688 4.207031 -3.792969 C 3.8125 -3.117188 3.574219 -2.671875 3.195312 -2.058594 C 2.789062 -1.75 2.40625 -1.539062 2.117188 -1.308594 Z M 2.117188 -1.308594" transform="translate(114.412 235.314)"/></g></g></g><g fill="#FFF"><g><g><path d="M 7.773438 -7.253906 C 8.417969 -7.136719 8.945312 -7.375 9.304688 -7.941406 C 9.402344 -8.070312 9.464844 -8.207031 9.492188 -8.351562 C 9.589844 -8.890625 9.453125 -9.359375 9.039062 -9.730469 C 8.738281 -10.117188 8.464844 -10.429688 8.171875 -10.667969 L 8.042969 -10.765625 C 7.890625 -10.941406 7.734375 -11.117188 7.578125 -11.257812 C 7.363281 -11.519531 7.117188 -11.785156 6.863281 -12.019531 C 6.796875 -12.066406 6.710938 -12.195312 6.621094 -12.320312 C 6.535156 -12.449219 6.402344 -12.546875 6.242188 -12.6875 C 6.191406 -12.808594 6.132812 -12.894531 6.066406 -12.941406 C 5.914062 -13.117188 5.863281 -13.238281 5.84375 -13.351562 C 5.851562 -13.386719 5.851562 -13.386719 5.816406 -13.394531 C 6.707031 -14.011719 7.257812 -14.390625 7.421875 -14.472656 C 7.550781 -14.5625 7.710938 -14.644531 7.851562 -14.804688 C 8.15625 -15.042969 8.574219 -15.300781 9.027344 -15.550781 L 9.882812 -16.175781 L 10.714844 -16.875 C 10.953125 -17.164062 11.113281 -17.433594 11.164062 -17.71875 C 11.210938 -17.972656 11.183594 -18.234375 11.078125 -18.476562 C 10.914062 -18.988281 10.59375 -19.269531 10.054688 -19.367188 L 9.949219 -19.386719 C 9.484375 -19.472656 9.042969 -19.292969 8.597656 -18.890625 C 8.511719 -18.832031 8.429688 -18.773438 8.375 -18.675781 C 8.28125 -18.578125 8.238281 -18.550781 8.203125 -18.558594 C 8.160156 -18.527344 7.226562 -17.882812 5.320312 -16.5625 L 4.449219 -16.054688 C 3.945312 -15.738281 3.539062 -15.332031 3.261719 -14.824219 C 3.105469 -14.59375 2.976562 -14.285156 2.902344 -13.890625 C 2.824219 -13.457031 2.855469 -13.007812 3.035156 -12.566406 C 3.085938 -12.449219 3.132812 -12.289062 3.21875 -12.164062 C 3.273438 -12.042969 3.351562 -11.878906 3.433594 -11.714844 C 3.515625 -11.554688 3.597656 -11.390625 3.722656 -11.257812 C 3.808594 -11.128906 3.925781 -10.960938 4.015625 -10.832031 L 4.933594 -9.773438 C 5.136719 -9.664062 5.476562 -9.304688 5.96875 -8.734375 L 6.535156 -8.1875 C 6.597656 -8.136719 6.722656 -8.003906 6.898438 -7.75 C 7.1875 -7.511719 7.457031 -7.351562 7.773438 -7.253906 Z M 7.773438 -7.253906" transform="translate(23.128 182.833)"/></g></g></g><g fill="#FFF"><g><g><path d="M 2.53125 -3.503906 C 3.355469 -3.355469 4.011719 -3.902344 4.460938 -5.152344 L 4.808594 -5.832031 C 5.042969 -6.308594 5.167969 -6.582031 5.171875 -6.617188 C 5.179688 -6.652344 5.242188 -6.789062 5.347656 -6.957031 C 5.449219 -7.125 5.628906 -7.5 5.878906 -8.046875 L 6.503906 -9.230469 C 6.683594 -9.605469 6.839844 -9.871094 6.933594 -9.964844 L 7.488281 -10.976562 L 8.273438 -12.429688 C 8.453125 -12.804688 8.570312 -13.042969 8.625 -13.140625 C 8.679688 -13.242188 8.734375 -13.34375 8.804688 -13.515625 C 8.871094 -13.691406 8.929688 -13.792969 8.941406 -13.863281 C 9.101562 -14.128906 9.21875 -14.367188 9.289062 -14.542969 C 9.453125 -14.84375 9.695312 -15.355469 10.003906 -16.042969 C 10.234375 -16.480469 10.351562 -16.71875 10.363281 -16.792969 L 10.722656 -17.539062 C 10.78125 -17.640625 10.828125 -17.707031 10.878906 -17.773438 C 10.890625 -17.84375 10.902344 -17.914062 10.945312 -17.945312 C 10.953125 -17.980469 10.964844 -18.054688 11.007812 -18.082031 C 11.015625 -18.117188 11.019531 -18.152344 11.0625 -18.183594 C 11.070312 -18.21875 11.078125 -18.253906 11.082031 -18.289062 L 11.734375 -19.617188 C 11.898438 -19.921875 12.011719 -20.125 12.066406 -20.222656 C 12.121094 -20.324219 12.140625 -20.433594 12.203125 -20.570312 L 12.253906 -20.636719 C 12.355469 -20.800781 12.472656 -21.039062 12.574219 -21.390625 C 12.625 -21.457031 12.679688 -21.558594 12.734375 -21.660156 C 12.789062 -21.761719 12.804688 -21.832031 12.8125 -21.867188 C 12.816406 -21.902344 12.832031 -21.976562 12.871094 -22.003906 C 12.878906 -22.039062 12.886719 -22.078125 12.941406 -22.175781 L 13.117188 -22.738281 C 13.234375 -23.382812 13.070312 -23.894531 12.648438 -24.234375 C 12.425781 -24.421875 12.222656 -24.53125 11.96875 -24.578125 C 11.71875 -24.625 11.492188 -24.59375 11.214844 -24.496094 C 10.703125 -24.328125 10.367188 -23.90625 10.246094 -23.261719 L 10.265625 -23.371094 C 10.246094 -23.261719 10.226562 -23.15625 10.1875 -23.125 C 10.136719 -23.058594 10.128906 -23.023438 10.128906 -23.023438 C 10.125 -22.988281 10 -22.714844 9.710938 -22.136719 C 9.695312 -22.066406 9.640625 -21.964844 9.585938 -21.863281 C 9.53125 -21.761719 9.472656 -21.660156 9.417969 -21.558594 C 9.363281 -21.457031 9.289062 -21.25 9.128906 -20.984375 C 8.90625 -20.578125 8.671875 -20.101562 8.414062 -19.519531 C 7.976562 -18.523438 7.738281 -18.046875 7.734375 -18.011719 C 7.726562 -17.976562 7.601562 -17.703125 7.375 -17.261719 C 7.242188 -16.953125 7.132812 -16.75 7.070312 -16.613281 C 7.003906 -16.441406 6.902344 -16.308594 6.835938 -16.136719 C 6.710938 -15.863281 6.539062 -15.523438 6.324219 -15.15625 C 6.308594 -15.085938 6.253906 -14.984375 6.1875 -14.808594 C 6.117188 -14.636719 6.0625 -14.535156 6.011719 -14.472656 C 5.957031 -14.371094 5.894531 -14.234375 5.789062 -14.066406 L 5.652344 -13.722656 L 4.925781 -12.371094 C 4.871094 -12.269531 4.8125 -12.167969 4.757812 -12.066406 C 4.695312 -11.929688 4.550781 -11.734375 4.382812 -11.433594 C 4.21875 -11.128906 4.097656 -10.890625 4.039062 -10.753906 C 3.800781 -10.277344 3.574219 -9.839844 3.316406 -9.441406 L 2.90625 -8.625 C 2.902344 -8.589844 2.851562 -8.523438 2.796875 -8.421875 C 2.644531 -8.191406 2.574219 -8.019531 2.554688 -7.910156 C 2.535156 -7.804688 2.417969 -7.566406 2.1875 -7.125 C 1.683594 -6.179688 1.414062 -5.523438 1.355469 -5.203125 C 1.257812 -4.664062 1.402344 -4.230469 1.742188 -3.871094 C 2.011719 -3.710938 2.285156 -3.585938 2.53125 -3.503906 Z M 2.53125 -3.503906" transform="translate(31.162 184.298)"/></g></g></g><g fill="#FFF"><g><g><path d="M 7.363281 -12.929688 L 7.339844 -13.007812 C 7.375 -13 7.367188 -12.964844 7.363281 -12.929688 Z M 3.3125 -7.996094 C 3.820312 -7.941406 4.324219 -8.070312 4.792969 -8.390625 C 5.070312 -8.488281 5.554688 -8.699219 6.246094 -9.054688 C 6.9375 -9.371094 7.339844 -9.558594 7.503906 -9.640625 C 8.324219 -10.082031 8.917969 -10.492188 9.242188 -10.84375 C 9.777344 -11.339844 10.097656 -11.871094 10.203125 -12.445312 C 10.351562 -13.273438 10.214844 -13.925781 9.832031 -14.480469 C 9.710938 -14.835938 9.382812 -15.265625 8.894531 -15.835938 C 8.042969 -17.066406 7.566406 -17.710938 7.480469 -17.835938 L 7.421875 -17.921875 C 7.308594 -18.125 7.222656 -18.253906 7.1875 -18.261719 C 7.082031 -18.5 6.992188 -18.628906 6.929688 -18.679688 C 6.90625 -18.757812 6.882812 -18.835938 6.851562 -18.878906 C 6.824219 -18.917969 6.792969 -18.960938 6.765625 -19.003906 C 6.734375 -19.046875 6.699219 -19.054688 6.707031 -19.089844 C 6.675781 -19.132812 6.675781 -19.132812 6.683594 -19.167969 C 6.65625 -19.210938 6.65625 -19.210938 6.617188 -19.214844 C 6.410156 -19.699219 6.054688 -19.988281 5.589844 -20.070312 L 5.480469 -20.089844 C 5.015625 -20.175781 4.582031 -20.03125 4.171875 -19.625 C 4.027344 -19.429688 3.914062 -19.226562 3.867188 -18.976562 C 3.816406 -18.691406 3.867188 -18.347656 3.984375 -17.992188 C 4.050781 -17.941406 4.160156 -17.738281 4.289062 -17.417969 C 4.375 -17.289062 4.464844 -17.164062 4.515625 -17.042969 C 4.554688 -17.035156 4.574219 -16.957031 4.664062 -16.832031 C 4.65625 -16.792969 4.691406 -16.789062 4.722656 -16.746094 C 4.75 -16.703125 4.78125 -16.660156 4.839844 -16.574219 C 4.863281 -16.496094 4.957031 -16.40625 5.050781 -16.316406 C 5.140625 -16.1875 5.222656 -16.023438 5.359375 -15.777344 C 5.460938 -15.722656 5.835938 -15.132812 6.570312 -14.074219 C 6.597656 -14.03125 6.65625 -13.945312 6.753906 -13.855469 C 6.8125 -13.769531 6.898438 -13.640625 6.980469 -13.480469 C 7.015625 -13.472656 7.082031 -13.421875 7.175781 -13.332031 C 7.265625 -13.207031 7.289062 -13.125 7.304688 -13.011719 L 7.296875 -12.976562 C 7.261719 -12.984375 7.261719 -12.984375 7.253906 -12.949219 C 7.210938 -12.917969 7.164062 -12.851562 7.121094 -12.824219 C 7.078125 -12.792969 6.910156 -12.675781 6.652344 -12.5 L 4.945312 -11.664062 L 3 -10.757812 C 2.511719 -10.515625 2.222656 -10.160156 2.136719 -9.691406 C 2.105469 -9.511719 2.136719 -9.285156 2.214844 -9.085938 C 2.28125 -8.851562 2.390625 -8.644531 2.574219 -8.425781 C 2.757812 -8.207031 2.988281 -8.054688 3.3125 -7.996094 Z M 3.3125 -7.996094" transform="translate(40.164 185.94)"/></g></g></g><g fill="#FFF"><g><g><path d="M 1.3125 -1.65625 C 1.386719 -1.410156 1.570312 -1.140625 1.726562 -0.832031 C 2.316406 -0.804688 2.757812 -0.277344 3.464844 -0.484375 C 4.214844 -0.921875 4.742188 -1.621094 5.070312 -2.441406 C 5.320312 -3.027344 5.273438 -3.609375 4.839844 -4.101562 C 4.441406 -4.5625 3.984375 -4.941406 3.371094 -5.113281 C 3.082031 -5.070312 2.792969 -5.03125 2.539062 -4.996094 C 1.253906 -4.1875 0.894531 -3.070312 1.3125 -1.65625 Z M 1.3125 -1.65625" transform="translate(183.457 32.987)"/></g></g></g><g fill="#FFF"><g><g><path d="M 1.3125 -1.65625 C 1.386719 -1.410156 1.570312 -1.140625 1.726562 -0.832031 C 2.316406 -0.804688 2.757812 -0.277344 3.464844 -0.484375 C 4.214844 -0.921875 4.742188 -1.621094 5.070312 -2.441406 C 5.320312 -3.027344 5.273438 -3.609375 4.839844 -4.101562 C 4.441406 -4.5625 3.984375 -4.941406 3.371094 -5.113281 C 3.082031 -5.070312 2.792969 -5.03125 2.539062 -4.996094 C 1.253906 -4.1875 0.894531 -3.070312 1.3125 -1.65625 Z M 1.3125 -1.65625" transform="translate(190.497 32.001)"/></g></g></g><g fill="#FFF"><g><g><path d="M 1.3125 -1.65625 C 1.386719 -1.410156 1.570312 -1.140625 1.726562 -0.832031 C 2.316406 -0.804688 2.757812 -0.277344 3.464844 -0.484375 C 4.214844 -0.921875 4.742188 -1.621094 5.070312 -2.441406 C 5.320312 -3.027344 5.273438 -3.609375 4.839844 -4.101562 C 4.441406 -4.5625 3.984375 -4.941406 3.371094 -5.113281 C 3.082031 -5.070312 2.792969 -5.03125 2.539062 -4.996094 C 1.253906 -4.1875 0.894531 -3.070312 1.3125 -1.65625 Z M 1.3125 -1.65625" transform="translate(197.537 31.015)"/></g></g></g><g fill="#FFF"><g><g><path d="M 6.355469 -3.070312 C 6.746094 -4.511719 7.128906 -5.917969 7.59375 -7.34375 C 8.210938 -9.328125 8.746094 -11.296875 9.222656 -13.324219 C 9.886719 -16.316406 10.761719 -19.253906 11.636719 -22.1875 C 11.707031 -22.433594 11.957031 -22.667969 12.140625 -22.921875 C 12.820312 -22.773438 13.488281 -22.59375 14.183594 -22.515625 C 14.835938 -22.414062 15.5625 -22.441406 16.226562 -22.375 C 16.886719 -22.308594 17.542969 -21.941406 18.382812 -22.390625 C 18.539062 -23.105469 19.121094 -23.855469 18.644531 -24.738281 C 17.832031 -25.226562 16.929688 -25.246094 16.042969 -25.449219 C 14.84375 -25.207031 13.738281 -25.738281 12.550781 -25.945312 C 11.792969 -26.078125 11.066406 -26.464844 10.160156 -26.332031 C 9.761719 -25.988281 9.246094 -25.75 8.898438 -25.164062 C 8.886719 -24.714844 8.949219 -24.246094 8.894531 -23.769531 C 8.8125 -23.1875 8.648438 -22.589844 8.496094 -22.023438 C 7.765625 -19.351562 7.039062 -16.675781 6.320312 -14.039062 C 5.773438 -12.03125 5.226562 -10.027344 4.679688 -8.023438 C 4.164062 -6.121094 3.609375 -4.230469 3.082031 -2.296875 C 2.988281 -1.945312 2.847656 -1.566406 2.988281 -1.113281 C 3.324219 -1.097656 3.695312 -1.074219 4.03125 -1.054688 C 4.25 -1.035156 4.40625 -0.914062 4.464844 -0.710938 C 4.503906 -0.4375 4.53125 -0.125 4.554688 0.0703125 C 5.023438 0.425781 5.433594 0.722656 5.554688 0.832031 C 7.375 1.78125 9.117188 1.5 10.742188 1.90625 C 10.917969 1.953125 11.113281 1.933594 11.300781 1.945312 C 11.414062 1.9375 11.503906 1.886719 11.515625 1.851562 C 11.621094 1.050781 11.714844 0.28125 11.792969 -0.566406 C 11.601562 -0.695312 11.371094 -0.945312 11.121094 -1.011719 C 10.570312 -1.203125 9.996094 -1.320312 9.398438 -1.484375 C 8.941406 -1.609375 8.429688 -1.671875 7.992188 -1.867188 C 7.449219 -2.089844 6.824219 -1.882812 6.273438 -2.222656 C 6.304688 -2.476562 6.277344 -2.789062 6.355469 -3.070312 Z M 6.355469 -3.070312" transform="translate(132.68 118.8)"/></g></g></g><g fill="#FFF"><g><g><path d="M 4.890625 -7.257812 C 4.898438 -7.144531 5.039062 -7.105469 5.089844 -7.015625 C 5.625 -6.757812 6.171875 -6.539062 6.941406 -6.597656 C 7.609375 -6.984375 7.867188 -7.519531 7.914062 -8.109375 C 7.929688 -8.597656 7.902344 -9.054688 8.210938 -9.503906 C 8.464844 -9.886719 8.570312 -10.425781 8.695312 -10.882812 C 9.273438 -12.765625 9.820312 -14.65625 10.355469 -16.515625 C 10.703125 -17.667969 10.96875 -18.804688 11.269531 -19.933594 C 11.28125 -20.117188 11.1875 -20.332031 11.167969 -20.527344 C 10.789062 -20.816406 10.425781 -21.140625 10.003906 -21.402344 C 9.875 -21.476562 9.632812 -21.429688 9.449219 -21.441406 C 9.011719 -21.21875 8.710938 -20.808594 8.394531 -20.324219 C 7.632812 -17.773438 6.855469 -15.152344 6.078125 -12.527344 C 5.910156 -12.042969 5.855469 -11.566406 5.523438 -11.167969 C 4.988281 -10.441406 4.859375 -9.53125 4.691406 -8.632812 C 4.765625 -8.199219 4.828125 -7.726562 4.890625 -7.257812 Z M 5.332031 -2.570312 C 4.804688 -2.714844 4.136719 -2.894531 3.570312 -3.042969 C 2.941406 -2.796875 2.722656 -2.402344 2.648438 -1.855469 C 2.886719 -1.339844 3.164062 -0.8125 3.375 -0.339844 C 3.203125 -0.121094 3.085938 0.0351562 2.96875 0.191406 C 3.105469 0.53125 3.175781 0.964844 3.769531 1.011719 C 4.5 0.679688 5.234375 0.195312 5.789062 -0.335938 C 6.417969 -1.261719 6.171875 -1.894531 5.332031 -2.570312 Z M 5.332031 -2.570312" transform="translate(316.326 59.457)"/></g></g></g><g fill="#FFF"><g><g><path d="M 4.890625 -7.257812 C 4.898438 -7.144531 5.039062 -7.105469 5.089844 -7.015625 C 5.625 -6.757812 6.171875 -6.539062 6.941406 -6.597656 C 7.609375 -6.984375 7.867188 -7.519531 7.914062 -8.109375 C 7.929688 -8.597656 7.902344 -9.054688 8.210938 -9.503906 C 8.464844 -9.886719 8.570312 -10.425781 8.695312 -10.882812 C 9.273438 -12.765625 9.820312 -14.65625 10.355469 -16.515625 C 10.703125 -17.667969 10.96875 -18.804688 11.269531 -19.933594 C 11.28125 -20.117188 11.1875 -20.332031 11.167969 -20.527344 C 10.789062 -20.816406 10.425781 -21.140625 10.003906 -21.402344 C 9.875 -21.476562 9.632812 -21.429688 9.449219 -21.441406 C 9.011719 -21.21875 8.710938 -20.808594 8.394531 -20.324219 C 7.632812 -17.773438 6.855469 -15.152344 6.078125 -12.527344 C 5.910156 -12.042969 5.855469 -11.566406 5.523438 -11.167969 C 4.988281 -10.441406 4.859375 -9.53125 4.691406 -8.632812 C 4.765625 -8.199219 4.828125 -7.726562 4.890625 -7.257812 Z M 5.332031 -2.570312 C 4.804688 -2.714844 4.136719 -2.894531 3.570312 -3.042969 C 2.941406 -2.796875 2.722656 -2.402344 2.648438 -1.855469 C 2.886719 -1.339844 3.164062 -0.8125 3.375 -0.339844 C 3.203125 -0.121094 3.085938 0.0351562 2.96875 0.191406 C 3.105469 0.53125 3.175781 0.964844 3.769531 1.011719 C 4.5 0.679688 5.234375 0.195312 5.789062 -0.335938 C 6.417969 -1.261719 6.171875 -1.894531 5.332031 -2.570312 Z M 5.332031 -2.570312" transform="translate(324.002 61.515)"/></g></g></g><g fill="#FFF"><g><g><path d="M 1.875 -0.976562 C 1.839844 -0.722656 1.898438 -0.402344 1.914062 -0.0546875 C 2.445312 0.210938 2.632812 0.871094 3.363281 0.96875 C 4.226562 0.875 4.992188 0.449219 5.625 -0.164062 C 6.09375 -0.597656 6.289062 -1.148438 6.089844 -1.777344 C 5.914062 -2.359375 5.652344 -2.890625 5.160156 -3.296875 C 4.878906 -3.375 4.601562 -3.457031 4.355469 -3.527344 C 2.851562 -3.316406 2.066406 -2.441406 1.875 -0.976562 Z M 1.875 -0.976562" transform="translate(304.307 245.708)"/></g></g></g><g fill="#FFF"><g><g><path d="M 1.875 -0.976562 C 1.839844 -0.722656 1.898438 -0.402344 1.914062 -0.0546875 C 2.445312 0.210938 2.632812 0.871094 3.363281 0.96875 C 4.226562 0.875 4.992188 0.449219 5.625 -0.164062 C 6.09375 -0.597656 6.289062 -1.148438 6.089844 -1.777344 C 5.914062 -2.359375 5.652344 -2.890625 5.160156 -3.296875 C 4.878906 -3.375 4.601562 -3.457031 4.355469 -3.527344 C 2.851562 -3.316406 2.066406 -2.441406 1.875 -0.976562 Z M 1.875 -0.976562" transform="translate(311.14 247.674)"/></g></g></g><g fill="#FFF"><g><g><path d="M 1.875 -0.976562 C 1.839844 -0.722656 1.898438 -0.402344 1.914062 -0.0546875 C 2.445312 0.210938 2.632812 0.871094 3.363281 0.96875 C 4.226562 0.875 4.992188 0.449219 5.625 -0.164062 C 6.09375 -0.597656 6.289062 -1.148438 6.089844 -1.777344 C 5.914062 -2.359375 5.652344 -2.890625 5.160156 -3.296875 C 4.878906 -3.375 4.601562 -3.457031 4.355469 -3.527344 C 2.851562 -3.316406 2.066406 -2.441406 1.875 -0.976562 Z M 1.875 -0.976562" transform="translate(317.971 249.64)"/></g></g></g><g fill="#FFF"><g><g><path d="M 1.253906 -26.042969 C 1.644531 -24.601562 2.03125 -23.191406 2.351562 -21.730469 C 2.828125 -19.707031 3.375 -17.703125 3.992188 -15.714844 C 4.9375 -12.796875 5.675781 -9.824219 6.398438 -6.886719 C 6.476562 -6.605469 6.367188 -6.308594 6.347656 -5.964844 C 5.691406 -5.746094 5.023438 -5.5625 4.371094 -5.3125 C 3.769531 -5.035156 3.148438 -4.675781 2.542969 -4.398438 C 1.9375 -4.117188 1.1875 -4.101562 0.691406 -3.289062 C 0.917969 -2.59375 0.796875 -1.652344 1.667969 -1.097656 C 2.613281 -1.089844 3.390625 -1.566406 4.269531 -1.804688 C 5.171875 -2.65625 6.390625 -2.761719 7.53125 -3.148438 C 8.25 -3.421875 9.074219 -3.457031 9.777344 -4.0625 C 9.953125 -4.527344 10.269531 -5.03125 10.273438 -5.710938 C 10.0625 -6.070312 9.761719 -6.480469 9.566406 -6.917969 C 9.34375 -7.460938 9.1875 -8.023438 9.027344 -8.621094 C 8.296875 -11.296875 7.578125 -13.933594 6.847656 -16.609375 C 6.300781 -18.613281 5.753906 -20.617188 5.207031 -22.625 C 4.691406 -24.523438 4.207031 -26.433594 3.691406 -28.332031 C 3.585938 -28.71875 3.515625 -29.117188 3.164062 -29.4375 C 2.867188 -29.277344 2.542969 -29.078125 2.246094 -28.921875 C 2.042969 -28.828125 1.839844 -28.886719 1.683594 -29.03125 C 1.511719 -29.25 1.339844 -29.46875 1.210938 -29.660156 C 0.625 -29.726562 0.121094 -29.777344 -0.0390625 -29.808594 C -2.089844 -29.703125 -3.433594 -28.542969 -5.054688 -28.101562 C -5.230469 -28.054688 -5.386719 -27.9375 -5.542969 -27.820312 C -5.640625 -27.753906 -5.691406 -27.664062 -5.691406 -27.664062 C -5.375 -26.917969 -5.066406 -26.210938 -4.707031 -25.4375 C -4.476562 -25.425781 -4.179688 -25.316406 -3.890625 -25.359375 C -3.316406 -25.476562 -2.765625 -25.664062 -2.175781 -25.863281 C -1.71875 -25.988281 -1.246094 -26.191406 -0.769531 -26.246094 C -0.1875 -26.332031 0.246094 -26.828125 0.890625 -26.8125 C 1.003906 -26.542969 1.175781 -26.324219 1.253906 -26.042969 Z M 1.253906 -26.042969" transform="translate(26.736 352.725)"/></g></g></g><g fill="#FFF"><g><g><path d="M -1.613281 -21.214844 C -1.96875 -19.71875 -2.472656 -18.472656 -3.234375 -17.28125 C -3.761719 -16.464844 -4.222656 -15.59375 -4.359375 -14.507812 C -4.15625 -14.121094 -3.9375 -13.699219 -3.65625 -13.222656 C -1.988281 -12.464844 -0.507812 -11.308594 1.285156 -10.71875 C 1.9375 -10.480469 2.503906 -10.085938 3.03125 -9.675781 C 3.980469 -8.929688 5.101562 -8.535156 6.296875 -8.328125 C 6.34375 -8.308594 6.429688 -8.382812 6.53125 -8.425781 C 7.023438 -8.949219 7.117188 -9.664062 7.285156 -10.289062 C 7.332031 -10.46875 7.277344 -10.683594 7.261719 -10.914062 C 6.925781 -11.046875 6.578125 -11.21875 6.226562 -11.386719 C 5.785156 -11.59375 5.234375 -11.679688 4.894531 -12.011719 C 3.730469 -12.984375 2.289062 -13.402344 0.988281 -14.039062 C 0.480469 -14.300781 -0.0195312 -14.640625 -0.488281 -15 C -0.613281 -15.105469 -0.628906 -15.335938 -0.730469 -15.570312 C -0.0664062 -16.71875 0.46875 -17.976562 0.957031 -19.253906 C 1.332031 -20.242188 1.773438 -21.261719 2.480469 -22.113281 C 2.621094 -22.253906 2.664062 -22.429688 2.742188 -22.621094 C 2.96875 -23.113281 2.964844 -23.585938 2.632812 -24 C 2.054688 -24.429688 1.453125 -24.730469 0.6875 -24.761719 C -0.109375 -23.554688 -0.90625 -22.34375 -1.613281 -21.214844 Z M -1.613281 -21.214844" transform="translate(196.997 288.786)"/></g></g></g><g fill="#FFF"><g><g><path d="M 11.273438 -4.894531 C 12.09375 -6.191406 10.589844 -6.632812 9.625 -6.746094 C 9.015625 -6.789062 8.085938 -6.734375 7.539062 -7.167969 C 6.933594 -7.210938 6.859375 -7.472656 7.289062 -7.945312 L 7.738281 -9.164062 C 8.203125 -10.347656 9.035156 -11.792969 9.109375 -13.039062 C 9.152344 -14.265625 7.84375 -14.9375 6.867188 -14.019531 C 5.5 -12.789062 5.421875 -10.148438 4.921875 -8.507812 C 4.542969 -8.71875 4.179688 -8.972656 3.785156 -9.214844 C 3.109375 -9.335938 3.023438 -9.632812 3.433594 -10.058594 C 3.496094 -10.710938 4.054688 -11.492188 4.265625 -12.132812 C 4.625 -13.308594 4.820312 -14.605469 4.667969 -15.863281 C 4.328125 -18.367188 2.210938 -19.839844 -0.144531 -18.605469 C -2.449219 -17.429688 -3.730469 -14.402344 -2.761719 -11.972656 C -2.488281 -11.316406 -2.058594 -10.722656 -1.566406 -10.15625 C -1.253906 -9.84375 -0.300781 -9.320312 -0.144531 -8.945312 C 0.136719 -8.179688 -1.191406 -6.15625 -1.214844 -4.972656 C -1.199219 -1.5625 2.589844 -1.109375 4.664062 -3.109375 C 5.21875 -3.632812 5.460938 -4.46875 5.996094 -4.949219 C 6.550781 -5.472656 6.285156 -5.398438 7.171875 -5.03125 C 8.179688 -4.640625 10.457031 -3.675781 11.273438 -4.894531 Z M 1.363281 -10.890625 C -0.191406 -12.15625 -2.117188 -15.035156 0.417969 -16.453125 C 1.558594 -17.070312 2.648438 -16.386719 2.835938 -15.140625 C 3.035156 -13.679688 2.054688 -12.058594 1.363281 -10.890625 Z M 2.117188 -5.617188 C 1.855469 -6.246094 1.917969 -6.894531 2.144531 -7.503906 C 2.773438 -7.140625 3.449219 -6.832031 4.097656 -6.511719 C 3.71875 -5.914062 2.664062 -4.300781 2.117188 -5.617188 Z M 2.117188 -5.617188" transform="translate(221.837 195.216)"/></g></g></g><g fill="#FFF"><g><g><path d="M 20.246094 -13.011719 C 20.183594 -13.390625 19.792969 -13.726562 19.511719 -14.050781 C 19.03125 -14.625 18.519531 -15.210938 17.972656 -15.890625 C 19.214844 -16.21875 20.269531 -16.476562 21.324219 -16.8125 C 21.652344 -16.9375 21.894531 -17.292969 22.15625 -17.523438 C 21.832031 -17.75 21.515625 -18.089844 21.152344 -18.140625 C 20.609375 -18.234375 20.007812 -18.117188 19.40625 -18.082031 C 18.789062 -18.011719 18.15625 -17.914062 17.460938 -17.839844 C 17.835938 -18.917969 18.25 -19.820312 18.488281 -20.765625 C 18.585938 -21.148438 18.269531 -21.648438 18.125 -22.101562 C 17.671875 -21.882812 17.085938 -21.796875 16.8125 -21.453125 C 16.265625 -20.769531 15.882812 -19.929688 15.433594 -19.121094 C 14.550781 -19.835938 13.730469 -20.601562 12.808594 -21.144531 C 12.433594 -21.351562 11.628906 -21.214844 11.257812 -20.914062 C 10.703125 -20.46875 10.945312 -19.808594 11.457031 -19.304688 C 12.082031 -18.625 12.742188 -17.933594 13.433594 -17.148438 C 12.710938 -16.933594 12.082031 -16.832031 11.582031 -16.511719 C 11.210938 -16.292969 10.988281 -15.808594 10.699219 -15.433594 C 11.070312 -15.226562 11.445312 -14.9375 11.878906 -14.855469 C 12.390625 -14.777344 12.910156 -14.890625 13.464844 -14.910156 C 13.09375 -13.675781 12.703125 -12.566406 12.488281 -11.414062 C 12.394531 -10.949219 12.730469 -10.40625 12.890625 -9.902344 C 13.355469 -10.15625 14.035156 -10.277344 14.292969 -10.667969 C 14.863281 -11.65625 15.285156 -12.75 15.847656 -13.976562 C 16.210938 -13.496094 16.429688 -13.199219 16.722656 -12.910156 C 17.332031 -12.359375 17.894531 -11.710938 18.605469 -11.304688 C 18.945312 -11.109375 19.78125 -11.234375 20.042969 -11.546875 C 20.332031 -11.839844 20.339844 -12.539062 20.246094 -13.011719 Z M 20.246094 -13.011719" transform="translate(128.071 330.232)"/></g></g></g><g fill="#FFF"><g><g><path d="M 12.125 -0.117188 C 12.148438 -0.34375 12.195312 -0.535156 12.175781 -0.738281 C 12.210938 -1.433594 11.332031 -1.679688 10.707031 -2 C 7.769531 -2.878906 6.058594 -3.023438 3.15625 -3.492188 C 2.289062 -3.636719 2.414062 -3.335938 2.578125 -2.625 C 2.75 -1.8125 3.0625 -1.4375 3.488281 -1.402344 C 5.625 -1.21875 7.148438 -1.019531 9.246094 -0.542969 C 10.835938 -0.191406 12.023438 0.730469 12.125 -0.117188 Z M 7.207031 -4.992188 C 8.3125 -4.859375 10.371094 -4.226562 11.503906 -3.917969 C 12.859375 -3.558594 11.945312 -5.453125 11.078125 -5.765625 C 8.980469 -6.507812 7.328125 -6.605469 5.121094 -7.039062 C 4.355469 -7.191406 4.035156 -7.535156 4.074219 -6.453125 C 4.140625 -5.0625 5.980469 -5.1875 7.207031 -4.992188 Z M 7.207031 -4.992188" transform="translate(256.284 336.97)"/></g></g></g><g fill="#FFF"><g><g><path d="M 12.125 -0.117188 C 12.148438 -0.34375 12.195312 -0.535156 12.175781 -0.738281 C 12.210938 -1.433594 11.332031 -1.679688 10.707031 -2 C 7.769531 -2.878906 6.058594 -3.023438 3.15625 -3.492188 C 2.289062 -3.636719 2.414062 -3.335938 2.578125 -2.625 C 2.75 -1.8125 3.0625 -1.4375 3.488281 -1.402344 C 5.625 -1.21875 7.148438 -1.019531 9.246094 -0.542969 C 10.835938 -0.191406 12.023438 0.730469 12.125 -0.117188 Z M 7.207031 -4.992188 C 8.3125 -4.859375 10.371094 -4.226562 11.503906 -3.917969 C 12.859375 -3.558594 11.945312 -5.453125 11.078125 -5.765625 C 8.980469 -6.507812 7.328125 -6.605469 5.121094 -7.039062 C 4.355469 -7.191406 4.035156 -7.535156 4.074219 -6.453125 C 4.140625 -5.0625 5.980469 -5.1875 7.207031 -4.992188 Z M 7.207031 -4.992188" transform="translate(269.294 340.118)"/></g></g></g><g fill="#FFF"><g><g><path d="M 8.515625 -3.25 C 8.296875 -3.996094 8.183594 -4.800781 7.808594 -5.425781 C 7.496094 -5.949219 6.804688 -6.496094 6.253906 -6.5625 C 4.605469 -6.765625 3.320312 -5.796875 3.09375 -4.476562 C 2.730469 -2.761719 3.863281 -2.195312 5.453125 -1.988281 C 4.777344 -0.847656 4.132812 -0.0390625 3.875 0.90625 C 3.652344 1.523438 3.722656 2.496094 4.085938 2.957031 C 4.324219 3.265625 5.460938 3.179688 6.035156 2.867188 C 8.292969 1.773438 9.238281 -0.855469 8.515625 -3.25 Z M 5.757812 -17.570312 C 5.65625 -18.921875 4.1875 -20.335938 3.105469 -20.253906 C 1.914062 -20.21875 0.769531 -18.773438 0.875 -17.367188 C 0.976562 -16.015625 2.414062 -14.980469 3.972656 -15.207031 C 5.375 -15.417969 5.679688 -16.421875 5.757812 -17.570312 Z M 5.757812 -17.570312" transform="translate(340.928 323.042)"/></g></g></g></svg>