<svg width="500" height="500" viewBox="0 0 500 500" fill="none" xmlns="http://www.w3.org/2000/svg">
<rect width="500" height="500" fill="url(#paint0_linear_204_2)"/>
<g clip-path="url(#clip0_204_2)">
<path d="M346.907 183.519L329.957 171.501C328.637 170.565 326.808 170.876 325.873 172.196C324.937 173.516 325.248 175.344 326.568 176.28L343.518 188.298C344.161 188.754 344.323 189.625 343.886 190.281L338.062 199.021C337.416 199.989 336.14 200.131 335.296 199.538C335.293 199.537 335.291 199.536 335.289 199.535L291.487 168.479C290.667 167.898 290.393 166.734 290.958 165.832L296.565 156.883C297.007 156.178 297.949 155.99 298.628 156.471L315.415 168.373C316.734 169.309 318.563 168.998 319.498 167.678C320.434 166.358 320.123 164.529 318.803 163.594L302.017 151.692C298.596 149.267 293.828 150.218 291.601 153.772L285.994 162.721C284.944 164.395 284.614 166.322 284.912 168.141C278.008 175.886 271.991 181.808 267.461 185.307C259.547 191.42 251.897 207.497 248.976 214.125C247.695 217.032 242.319 229.57 241.256 237.593L217.281 232.106C212.94 231.114 208.324 232.506 205.235 235.744C203.077 238.005 200.429 241.022 197.796 244.63C197.914 242.073 198.016 239.531 198.062 237.537C198.07 237.192 198.228 236.875 198.496 236.669C203.766 232.605 216.52 222.29 221.117 214.3C223.034 210.969 223.028 206.838 221.1 203.52C218.933 199.792 213.969 198.814 210.55 201.463L200.854 208.977C205.009 196.995 200.453 193.711 200.296 193.269C196.193 188.606 188.711 189.293 185.467 194.646C184.533 196.187 183.508 197.916 182.438 199.778C176.88 194.616 167.648 197.379 165.861 204.876L161.709 222.293C161.078 224.938 161.07 227.736 161.686 230.383L166.33 250.349C166.327 252.631 166.343 254.89 166.36 257.116C166.451 269.118 166.537 280.456 163.357 290.689L162.214 294.367C162.193 294.371 162.17 294.371 162.148 294.376C160.051 294.764 158.245 295.956 157.062 297.731L151.239 306.471C149.033 309.783 149.847 314.18 153.093 316.481L197.983 348.308C201.412 350.739 206.177 349.774 208.399 346.228L214.006 337.28C215.055 335.606 215.386 333.679 215.087 331.86C221.991 324.115 228.009 318.193 232.538 314.694C238.089 310.406 243.531 301.128 247.12 294.1C247.856 292.659 247.284 290.894 245.843 290.159C244.402 289.423 242.638 289.994 241.902 291.436C237.283 300.483 232.564 307.27 228.956 310.057C224.331 313.63 218.582 319.222 211.842 326.7L168.099 295.685C168.056 295.654 168.012 295.624 167.968 295.594L168.952 292.427C172.403 281.323 172.313 269.543 172.218 257.072C172.177 251.669 172.141 246.171 172.379 240.782C172.922 228.507 184.127 208.163 190.477 197.682C191.052 196.735 192.014 196.135 193.118 196.037C195.027 195.869 195.922 197.194 195.983 197.238C198.56 200.187 194.539 210.405 190.876 216.708L183.958 222.068C181.278 224.145 179.562 227.14 179.123 230.528L175.608 259.649C175.414 261.255 176.559 262.714 178.165 262.908C179.786 263.1 181.231 261.946 181.424 260.351L184.936 231.255C185.172 229.44 186.099 227.822 187.547 226.7L194.911 220.994L214.139 206.095C214.752 205.62 215.645 205.793 216.035 206.465C216.913 207.975 216.915 209.859 216.04 211.379C211.852 218.659 198.815 229.026 194.919 232.031C193.244 233.323 192.255 235.28 192.205 237.402C192.08 242.802 191.523 252.634 191.379 255.127C189.543 258.83 188.161 262.538 187.277 266.158C186.894 267.729 187.857 269.314 189.428 269.698C191.007 270.082 192.587 269.112 192.969 267.546C193.79 264.18 195.106 260.704 196.879 257.215C200.68 249.738 205.827 243.612 209.475 239.789C211.145 238.039 213.636 237.282 215.975 237.818L241.355 243.626C241.866 243.742 242.213 244.216 242.206 244.709C242.178 246.71 240.813 248.467 238.885 248.982C232.996 250.555 225.549 249.04 221.634 247.997C218.288 247.105 214.711 248.559 212.935 251.529C210.473 255.644 207.223 261.058 205.716 263.489C203.782 266.608 202.279 273.823 205.199 279.4C207.776 284.32 212.898 286.39 218.496 286.39C233.837 286.388 238.901 267.676 242.084 261.434C243.569 258.523 247.516 256.878 250.28 257.173C252.01 257.356 252.732 258.152 253.025 259.251C253.418 260.729 252.26 267.46 247.478 279.229C246.869 280.728 247.59 282.437 249.089 283.046C250.589 283.655 252.296 282.933 252.905 281.434C254.594 277.279 257.914 268.559 258.734 262.404L282.72 267.893C287.062 268.886 291.678 267.492 294.766 264.256C296.924 261.995 299.573 258.978 302.205 255.369C302.087 257.926 301.986 260.468 301.939 262.463C301.931 262.808 301.773 263.124 301.506 263.33C296.235 267.395 283.48 277.711 278.884 285.699C276.967 289.031 276.974 293.161 278.901 296.479C279.936 298.26 281.689 299.507 283.71 299.901C285.731 300.294 287.824 299.797 289.451 298.536L299.147 291.023C294.984 303.028 299.553 306.301 299.706 306.731C303.808 311.395 311.291 310.708 314.535 305.354C315.469 303.813 316.493 302.084 317.564 300.223C322.971 305.243 332.313 302.79 334.14 295.124L338.293 277.707C338.923 275.062 338.931 272.265 338.315 269.618L333.671 249.651C333.675 247.369 333.659 245.11 333.642 242.884C333.551 230.882 333.465 219.544 336.644 209.311L337.787 205.634C337.809 205.63 337.831 205.629 337.853 205.624C339.95 205.236 341.757 204.044 342.939 202.269L348.762 193.529C350.967 190.217 350.153 185.821 346.907 183.519V183.519ZM167.408 223.652L171.56 206.234C172.376 202.81 177.052 201.548 179.397 205.221C175.075 213.209 170.366 222.96 168.014 231.728L167.392 229.055C166.981 227.287 166.986 225.418 167.408 223.652V223.652ZM209.041 334.168L203.434 343.117C202.995 343.819 202.053 344.011 201.372 343.529L156.482 311.701C155.839 311.245 155.677 310.375 156.114 309.719L161.938 300.978C162.567 300.035 163.826 299.841 164.708 300.462C164.709 300.463 164.71 300.464 164.71 300.464L208.513 331.52C209.323 332.095 209.611 333.26 209.041 334.168V334.168ZM236.863 258.773C233.667 265.041 229.341 281.113 217.805 280.513C214.064 280.322 211.638 279.069 210.389 276.683C208.597 273.26 209.635 268.284 210.694 266.577C212.222 264.113 215.489 258.669 217.961 254.536C218.411 253.784 219.283 253.433 220.125 253.658C225.569 255.108 233.474 256.456 240.291 254.669C238.851 255.823 237.655 257.218 236.863 258.773V258.773ZM244.845 252.138C245.959 251.075 246.83 249.769 247.384 248.322C249.91 249.026 252.674 248.746 255.155 247.861C254.041 248.925 253.17 250.23 252.616 251.678C250.078 250.97 247.314 251.258 244.845 252.138V252.138ZM309.523 302.318C308.331 304.284 305.587 304.548 304.112 302.871L304.017 302.762C301.44 299.812 305.461 289.595 309.124 283.292L316.042 277.932C318.722 275.855 320.438 272.86 320.877 269.472L324.392 240.351C324.586 238.745 323.441 237.286 321.835 237.092C320.231 236.903 318.769 238.043 318.575 239.649L315.064 268.745C314.828 270.56 313.901 272.179 312.453 273.3L305.089 279.007L285.862 293.905C285.462 294.215 285.043 294.192 284.83 294.15C284.616 294.109 284.22 293.973 283.966 293.536C283.088 292.025 283.086 290.142 283.961 288.621C288.148 281.343 301.186 270.974 305.081 267.97C306.756 266.679 307.745 264.721 307.795 262.599C307.92 257.198 308.478 247.366 308.622 244.874C310.457 241.171 311.84 237.462 312.723 233.843C313.107 232.271 312.144 230.686 310.572 230.303C309.001 229.92 307.415 230.883 307.032 232.454C306.21 235.82 304.895 239.297 303.121 242.786C299.32 250.262 294.174 256.388 290.526 260.211C288.855 261.962 286.365 262.72 284.025 262.182L258.645 256.375C258.135 256.258 257.787 255.785 257.794 255.292C257.822 253.29 259.188 251.533 261.116 251.019C267.001 249.446 274.451 250.961 278.366 252.003C281.712 252.895 285.289 251.442 287.066 248.471C289.531 244.35 292.785 238.929 294.284 236.512C296.219 233.392 297.721 226.178 294.801 220.6C293.246 217.631 289.849 214.012 282.493 213.636C266.469 212.823 261.344 231.846 257.916 238.567C256.432 241.478 252.48 243.121 249.721 242.828C247.986 242.644 247.267 241.845 246.976 240.75C246.449 238.773 248.714 229.242 254.336 216.49C259.959 203.732 266.361 193.561 271.042 189.944C275.667 186.371 281.417 180.779 288.157 173.302L331.9 204.316C331.943 204.346 331.987 204.377 332.031 204.407L331.047 207.573C327.596 218.678 327.686 230.458 327.781 242.929C327.858 253.136 327.924 259.663 326.899 264.387C326.895 264.403 326.891 264.42 326.888 264.437C324.079 277.308 314.115 294.739 309.523 302.318V302.318ZM259.708 245.331C261.149 244.177 262.344 242.782 263.137 241.227C266.316 234.99 270.662 218.882 282.195 219.486C285.936 219.677 288.362 220.93 289.611 223.317C291.403 226.74 290.365 231.716 289.306 233.423C287.786 235.874 284.515 241.323 282.038 245.463C281.589 246.214 280.719 246.565 279.874 246.341C276.289 245.386 271.636 244.477 266.929 244.477C264.49 244.476 262.035 244.721 259.708 245.331V245.331ZM332.592 276.348L328.44 293.765C327.622 297.196 322.945 298.446 320.603 294.779C324.906 286.845 329.64 277.018 331.986 268.272L332.608 270.946C333.019 272.713 333.014 274.581 332.592 276.348V276.348Z" fill="#ACBEFF"/>
</g>
<defs>
<linearGradient id="paint0_linear_204_2" x1="0" y1="250" x2="500" y2="250" gradientUnits="userSpaceOnUse">
<stop stop-color="#ACBEFF"/>
<stop offset="1" stop-color="#223FA8"/>
</linearGradient>
<clipPath id="clip0_204_2">
<rect width="200" height="200" fill="white" transform="translate(150 150)"/>
</clipPath>
</defs>
</svg>
