<svg width="500" height="500" viewBox="0 0 500 500" fill="none" xmlns="http://www.w3.org/2000/svg">
<rect width="500" height="500" fill="url(#paint0_linear_313_116)"/>
<rect x="188.5" y="151.5" width="122" height="197" rx="18.5" fill="#1A1A1A" stroke="white" stroke-width="3"/>
<g clip-path="url(#clip0_313_116)">
<path d="M250 225.333C237.298 210.5 215 220.767 215 241.667C215 264.167 248.017 280.833 249.417 281.533C249.791 281.706 250.209 281.706 250.583 281.533C251.983 280.833 285 264.167 285 241.667C285 220.75 262.688 210.517 250 225.333ZM262.235 247L251.56 256.5C251.952 252.867 253.492 249.524 255.89 247.099C258.289 244.674 261.381 243.334 264.583 243.333H268.958C268.958 247.312 267.576 251.127 265.114 253.94C262.653 256.753 259.314 258.333 255.833 258.333H254.244L264.015 249.65C264.294 249.371 264.469 248.98 264.505 248.558C264.541 248.135 264.435 247.713 264.208 247.378C263.981 247.042 263.651 246.817 263.284 246.75C262.918 246.683 262.543 246.779 262.235 247.017V247ZM235.985 246.3L245.756 255H244.167C240.686 255 237.347 253.42 234.886 250.607C232.424 247.794 231.042 243.978 231.042 240H235.417C238.619 240.001 241.711 241.34 244.11 243.765C246.508 246.19 248.048 249.534 248.44 253.167L237.765 243.683C237.457 243.445 237.082 243.35 236.716 243.417C236.349 243.484 236.019 243.708 235.792 244.044C235.565 244.38 235.459 244.802 235.495 245.224C235.531 245.646 235.706 246.037 235.985 246.317V246.3ZM251.458 277.383V261.667H255.833C260.088 261.667 264.168 259.735 267.177 256.297C270.185 252.859 271.875 248.196 271.875 243.333V241.667C271.875 241.225 271.721 240.801 271.448 240.488C271.174 240.176 270.803 240 270.417 240H264.583C261.752 240.005 258.971 240.866 256.525 242.497C254.079 244.127 252.054 246.469 250.656 249.283C249.603 245.614 247.562 242.419 244.825 240.153C242.089 237.887 238.796 236.667 235.417 236.667H229.583C229.197 236.667 228.826 236.842 228.552 237.155C228.279 237.467 228.125 237.891 228.125 238.333V240C228.125 244.862 229.815 249.525 232.823 252.964C235.832 256.402 239.912 258.333 244.167 258.333H248.542V277.383C188.881 244.133 231.771 205.383 248.877 228.9C249.014 229.089 249.186 229.241 249.38 229.345C249.574 229.449 249.786 229.503 250 229.503C250.214 229.503 250.426 229.449 250.62 229.345C250.814 229.241 250.986 229.089 251.123 228.9C268.215 205.383 311.119 244.133 251.458 277.383Z" fill="white"/>
</g>
<defs>
<linearGradient id="paint0_linear_313_116" x1="0" y1="250" x2="500" y2="250" gradientUnits="userSpaceOnUse">
<stop stop-color="#222222"/>
<stop offset="1" stop-color="#333333"/>
</linearGradient>
<clipPath id="clip0_313_116">
<rect width="70" height="80" fill="white" transform="translate(215 210)"/>
</clipPath>
</defs>
</svg>
