<svg width="500" height="500" viewBox="0 0 500 500" fill="none" xmlns="http://www.w3.org/2000/svg">
<rect width="500" height="500" fill="url(#paint0_linear_306_116)"/>
<g clip-path="url(#clip0_306_116)">
<path d="M249.5 188.333C217.745 151.25 162 176.917 162 229.167C162 285.417 244.542 327.083 248.042 328.833C248.977 329.264 250.023 329.264 250.958 328.833C254.458 327.083 337 285.417 337 229.167C337 176.875 281.219 151.292 249.5 188.333ZM280.089 242.5L253.401 266.25C254.38 257.169 258.23 248.809 264.226 242.747C270.223 236.684 277.952 233.336 285.958 233.333H296.896C296.896 243.279 293.439 252.817 287.285 259.85C281.132 266.882 272.786 270.833 264.083 270.833H260.109L284.536 249.125C285.235 248.426 285.673 247.45 285.763 246.394C285.853 245.338 285.587 244.283 285.02 243.444C284.453 242.604 283.627 242.044 282.711 241.876C281.794 241.708 280.857 241.946 280.089 242.542V242.5ZM214.464 240.75L238.891 262.5H234.917C226.214 262.5 217.868 258.549 211.715 251.516C205.561 244.484 202.104 234.946 202.104 225H213.042C221.048 225.003 228.777 228.35 234.774 234.413C240.77 240.476 244.62 248.835 245.599 257.917L218.911 234.208C218.143 233.613 217.206 233.375 216.289 233.543C215.373 233.71 214.547 234.271 213.98 235.11C213.413 235.95 213.147 237.005 213.237 238.061C213.327 239.116 213.765 240.093 214.464 240.792V240.75ZM253.146 318.458V279.167H264.083C274.72 279.167 284.92 274.338 292.441 265.742C299.962 257.147 304.187 245.489 304.187 233.333V229.167C304.187 228.062 303.803 227.002 303.12 226.22C302.436 225.439 301.509 225 300.542 225H285.958C278.879 225.012 271.928 227.166 265.813 231.242C259.698 235.318 254.635 241.172 251.141 248.208C248.506 239.035 243.405 231.046 236.563 225.382C229.722 219.718 221.49 216.668 213.042 216.667H198.458C197.491 216.667 196.564 217.106 195.88 217.887C195.197 218.668 194.812 219.728 194.812 220.833V225C194.812 237.156 199.038 248.814 206.559 257.409C214.08 266.004 224.28 270.833 234.917 270.833H245.854V318.458C96.7031 235.333 203.927 138.458 246.693 197.25C247.035 197.722 247.464 198.102 247.949 198.362C248.434 198.623 248.964 198.758 249.5 198.758C250.036 198.758 250.566 198.623 251.051 198.362C251.536 198.102 251.965 197.722 252.307 197.25C295.036 138.458 402.297 235.333 253.146 318.458Z" fill="#111111"/>
</g>
<defs>
<linearGradient id="paint0_linear_306_116" x1="0" y1="250" x2="500" y2="250" gradientUnits="userSpaceOnUse">
<stop stop-color="#A4E17D"/>
<stop offset="1" stop-color="#95D190"/>
</linearGradient>
<clipPath id="clip0_306_116">
<rect width="175" height="200" fill="white" transform="translate(162 150)"/>
</clipPath>
</defs>
</svg>
