<svg width="500" height="500" viewBox="0 0 500 500" fill="none" xmlns="http://www.w3.org/2000/svg">
<rect width="500" height="500" fill="url(#paint0_linear_313_116)"/>
<g clip-path="url(#clip0_313_116)">
<path d="M250 188.333C213.708 151.25 150 176.917 150 229.167C150 285.417 244.333 327.083 248.333 328.833C249.403 329.264 250.597 329.264 251.667 328.833C255.667 327.083 350 285.417 350 229.167C350 176.875 286.25 151.292 250 188.333ZM284.958 242.5L254.458 266.25C255.577 257.169 259.977 248.809 266.83 242.747C273.683 236.684 282.517 233.336 291.667 233.333H304.167C304.167 243.279 300.216 252.817 293.183 259.85C286.151 266.882 276.612 270.833 266.667 270.833H262.125L290.042 249.125C290.84 248.426 291.341 247.45 291.444 246.394C291.547 245.338 291.243 244.283 290.595 243.444C289.946 242.604 289.002 242.044 287.955 241.876C286.908 241.708 285.836 241.946 284.958 242.542V242.5ZM209.958 240.75L237.875 262.5H233.333C223.388 262.5 213.849 258.549 206.817 251.516C199.784 244.484 195.833 234.946 195.833 225H208.333C217.483 225.003 226.317 228.35 233.17 234.413C240.023 240.476 244.423 248.835 245.542 257.917L215.042 234.208C214.164 233.613 213.092 233.375 212.045 233.543C210.997 233.71 210.054 234.271 209.405 235.11C208.757 235.95 208.453 237.005 208.556 238.061C208.659 239.116 209.16 240.093 209.958 240.792V240.75ZM254.167 318.458V279.167H266.667C278.822 279.167 290.48 274.338 299.076 265.742C307.671 257.147 312.5 245.489 312.5 233.333V229.167C312.5 228.062 312.061 227.002 311.28 226.22C310.498 225.439 309.438 225 308.333 225H291.667C283.576 225.012 275.632 227.166 268.643 231.242C261.654 235.318 255.869 241.172 251.875 248.208C248.864 239.035 243.034 231.046 235.215 225.382C227.396 219.718 217.988 216.668 208.333 216.667H191.667C190.562 216.667 189.502 217.106 188.72 217.887C187.939 218.668 187.5 219.728 187.5 220.833V225C187.5 237.156 192.329 248.814 200.924 257.409C209.52 266.004 221.178 270.833 233.333 270.833H245.833V318.458C75.375 235.333 197.917 138.458 246.792 197.25C247.183 197.722 247.673 198.102 248.227 198.362C248.782 198.623 249.387 198.758 250 198.758C250.613 198.758 251.218 198.623 251.773 198.362C252.327 198.102 252.817 197.722 253.208 197.25C302.042 138.458 424.625 235.333 254.167 318.458Z" fill="white"/>
</g>
<defs>
<linearGradient id="paint0_linear_313_116" x1="0" y1="250" x2="500" y2="250" gradientUnits="userSpaceOnUse">
<stop stop-color="#111111"/>
<stop offset="1" stop-color="#222222"/>
</linearGradient>
<clipPath id="clip0_313_116">
<rect width="200" height="200" fill="white" transform="translate(150 150)"/>
</clipPath>
</defs>
</svg>
