<svg width="500" height="500" viewBox="0 0 500 500" fill="none" xmlns="http://www.w3.org/2000/svg">
<rect width="500" height="500" fill="url(#paint0_linear_3_2)"/>
<path d="M314.608 265.381L330.712 245.247L339.607 254.143L347.893 245.857L299.301 197.266H200.699L152.107 245.857L160.393 254.143L169.288 245.247L185.392 265.381L194.548 258.057L177.63 236.906L185.963 228.573L215.41 265.381L224.566 258.057L194.304 220.231L202.636 211.899L242.493 261.719L198.547 316.65L207.703 324.365L220.703 307.724V338.281H232.422V293.075L244.141 278.427V350H255.859V278.427L267.578 293.075V338.281H279.297V307.724L292.297 324.365L301.453 316.65L257.507 261.719L297.364 211.899L305.696 220.231L275.434 258.057L284.59 265.381L314.038 228.573L322.37 236.906L305.452 258.057L314.608 265.381Z" fill="#FFD700"/>
<path d="M275.082 185.547L266.296 150H220.703V161.719H230.78L224.92 185.547H275.082Z" fill="#FFD700"/>
<defs>
<linearGradient id="paint0_linear_3_2" x1="0" y1="250" x2="500" y2="250" gradientUnits="userSpaceOnUse">
<stop stop-color="#444444"/>
<stop offset="1" stop-color="#111111"/>
</linearGradient>
</defs>
</svg>
