<svg width="500" height="500" viewBox="0 0 500 500" fill="none" xmlns="http://www.w3.org/2000/svg">
<rect width="500" height="500" fill="url(#paint0_linear_3_19)"/>
<g clip-path="url(#clip0_3_19)">
<path d="M239.195 316.905L286.791 325.722C291.9 326.67 296.803 323.3 297.75 318.189L315.021 224.963C315.965 219.864 312.585 214.948 307.487 214.003L288.595 210.503L301.724 281.37C302.487 285.478 300.612 289.628 297.028 291.774C292.945 294.216 290.137 298.303 289.316 302.99C288.595 307.103 285.395 310.34 281.287 311.099L257.013 315.599C251.584 316.603 246.367 313.015 245.359 307.586C244.85 304.832 242.192 303.003 239.438 303.515C236.68 304.024 234.855 306.682 235.363 309.44C235.713 311.327 235.508 313.188 234.863 314.856C236.067 315.871 237.539 316.598 239.195 316.905V316.905Z" fill="white"/>
<path d="M263.473 328.182C268.901 330.046 272.267 335.743 271.191 341.561C270.854 343.366 272.048 345.111 273.862 345.444C299.923 350.229 298.282 349.998 298.745 349.998C299.899 349.998 300.995 349.394 301.603 348.378C305.04 342.632 310.799 338.674 317.394 337.524C318.765 337.282 319.844 336.215 320.099 334.844L341.852 217.417C342.106 216.047 341.481 214.663 340.286 213.947C334.54 210.509 330.586 204.755 329.432 198.16C329.19 196.785 328.123 195.71 326.757 195.455L302.482 190.955C300.674 190.622 298.932 191.818 298.595 193.626C297.561 199.209 292.72 203.143 287.249 203.234L287.295 203.483L308.701 207.449C317.414 209.063 323.189 217.465 321.575 226.177L304.305 319.403C302.688 328.127 294.317 333.897 285.576 332.277L263.473 328.182Z" fill="white"/>
<path d="M260.113 327.56L237.981 323.46C235.13 322.932 232.598 321.674 230.532 319.92C228.499 321.093 228.342 320.911 213.534 323.653C215.392 326.349 216.672 329.445 217.251 332.749C217.492 334.124 218.559 335.199 219.926 335.453L244.2 339.953C246.013 340.286 247.75 339.09 248.088 337.282C249.161 331.48 254.376 327.357 260.113 327.56V327.56Z" fill="white"/>
<path d="M251.068 181.811C250.211 177.182 246.169 174.118 241.841 174.118C240.599 174.118 244.614 173.443 192.512 183.095C187.414 184.04 184.034 188.956 184.979 194.055L202.249 287.28C203.195 292.389 208.095 295.761 213.209 294.814L260.805 285.997C265.903 285.052 269.282 280.136 268.338 275.037L251.068 181.811ZM209.607 223.474L198.099 215.778C195.806 214.245 196.267 210.739 198.879 209.851L211.988 205.399L215.751 192.075C216.501 189.422 219.978 188.776 221.629 190.986L229.915 202.077L243.749 201.539C246.496 201.429 248.195 204.535 246.601 206.793L238.613 218.1L243.399 231.091C244.352 233.676 241.921 236.244 239.284 235.426L226.062 231.324L215.186 239.89C213.036 241.585 209.827 240.088 209.791 237.316L209.607 223.474ZM240.755 272.491C215.82 277.111 217.46 276.833 217.014 276.833C215.439 276.833 214.037 275.711 213.74 274.106C213.405 272.296 214.6 270.556 216.411 270.221L239.541 265.937C241.352 265.602 243.09 266.797 243.426 268.607C243.761 270.417 242.565 272.156 240.755 272.491V272.491ZM246.736 251.928C211.857 258.389 213.983 258.023 213.529 258.023C211.954 258.023 210.553 256.901 210.255 255.296C209.92 253.486 211.115 251.746 212.926 251.411L245.522 245.373C247.332 245.039 249.071 246.233 249.406 248.043C249.742 249.853 248.546 251.592 246.736 251.928V251.928Z" fill="white"/>
<path d="M236.63 297.255C211.961 301.825 213.463 301.642 211.463 301.642C203.944 301.643 197.141 296.296 195.695 288.495L178.424 195.269C176.81 186.556 182.586 178.154 191.284 176.212L212.323 172.315C207.122 172.043 202.429 168.259 201.405 162.719C201.067 160.914 199.334 159.717 197.518 160.048L173.243 164.548C171.877 164.802 170.81 165.877 170.568 167.252C169.414 173.847 165.46 179.602 159.714 183.039C158.519 183.756 157.894 185.139 158.148 186.506L179.902 303.937C180.156 305.307 181.235 306.374 182.606 306.616C189.201 307.766 194.96 311.724 198.397 317.47C199.122 318.681 200.518 319.283 201.864 319.036L226.138 314.536C227.951 314.203 229.146 312.462 228.809 310.653C227.731 304.831 231.168 299.099 236.63 297.255ZM239.866 296.656C245.621 296.422 250.835 300.553 251.912 306.374C252.25 308.182 253.991 309.378 255.8 309.045L280.074 304.545C281.441 304.291 282.508 303.216 282.749 301.841C283.903 295.245 287.857 289.491 293.603 286.054C294.799 285.337 295.424 283.954 295.17 282.583L273.416 165.156C273.162 163.785 272.083 162.719 270.712 162.477C264.116 161.327 258.358 157.369 254.921 151.623C254.204 150.427 252.821 149.802 251.454 150.056L227.179 154.556C225.37 154.885 224.171 156.63 224.509 158.439C225.543 164.036 222.453 169.218 217.756 171.308L238.879 167.395C248.371 166.378 256.083 172.288 257.623 180.597L274.893 273.823C276.507 282.536 270.732 290.938 262.019 292.552L239.866 296.656Z" fill="white"/>
<path d="M216.249 221.633L216.367 230.475L223.313 225.003C224.174 224.324 225.315 224.113 226.364 224.438L234.809 227.059L231.752 218.761C231.373 217.732 231.524 216.582 232.157 215.685L237.259 208.463L228.423 208.807C227.331 208.849 226.279 208.35 225.623 207.471L220.331 200.387L217.927 208.896C217.629 209.952 216.83 210.793 215.791 211.146L207.418 213.99L214.769 218.906C215.681 219.517 216.235 220.536 216.249 221.633V221.633Z" fill="white"/>
</g>
<defs>
<linearGradient id="paint0_linear_3_19" x1="0" y1="250" x2="500" y2="250" gradientUnits="userSpaceOnUse">
<stop stop-color="#D9B3FF"/>
<stop offset="1" stop-color="#7E1AC1"/>
</linearGradient>
<clipPath id="clip0_3_19">
<rect width="200" height="200" fill="white" transform="translate(150 150)"/>
</clipPath>
</defs>
</svg>
