<svg width="500" height="500" viewBox="0 0 500 500" fill="none" xmlns="http://www.w3.org/2000/svg">
<rect width="500" height="500" fill="url(#paint0_linear_1_13)"/>
<g clip-path="url(#clip0_1_13)">
<path fill-rule="evenodd" clip-rule="evenodd" d="M213.921 292.779C213.921 292.779 217.709 276.679 208.439 274.195C204.197 273.059 203.662 268.312 193.255 263.965C187.968 261.757 179.881 262.461 176.452 259.073C169.645 252.348 166.832 243.309 157.678 243.286C154.458 250.062 153.063 256.895 154.403 263.446C155.991 271.216 158.632 277.438 162.16 282.301C171.161 294.709 185.942 298.26 203.781 296.057C206.895 295.673 210.307 294.517 213.921 292.779Z" fill="#FF5A58"/>
<path fill-rule="evenodd" clip-rule="evenodd" d="M208.439 274.195C217.709 276.679 213.921 292.779 213.921 292.779C223.642 288.105 234.83 279.226 245.644 269.842C245.644 269.842 249.275 256.984 241.244 251.731C235.074 247.694 237.729 244.056 227.322 239.709C222.036 237.501 210.725 237.033 207.296 233.645C200.489 226.92 191.025 213.945 181.872 213.922C171.716 222.78 162.582 232.967 157.678 243.286C166.832 243.309 169.645 252.347 176.452 259.072C179.881 262.46 187.968 261.756 193.255 263.964C203.662 268.312 204.197 273.059 208.439 274.195Z" fill="#FF9C9B"/>
<path fill-rule="evenodd" clip-rule="evenodd" d="M207.296 233.645C210.725 237.033 222.035 237.502 227.321 239.709C237.728 244.056 235.074 247.694 241.244 251.731C249.275 256.984 245.643 269.842 245.643 269.842C253.021 263.441 260.223 256.804 266.667 251.109C271.652 246.703 276.237 243.287 280.488 240.639C280.488 240.639 282.948 227.948 274.918 222.694C268.748 218.658 270.523 215.166 260.116 210.819C254.83 208.612 241.322 206.971 237.893 203.583C231.087 196.858 229.338 188.469 220.184 188.446C218.459 189.25 216.751 190.092 215.067 190.974C205.672 195.895 193.143 204.089 181.871 213.922C191.025 213.945 200.489 226.92 207.296 233.645Z" fill="#FF5A58"/>
<path fill-rule="evenodd" clip-rule="evenodd" d="M260.116 210.819C270.523 215.166 268.747 218.658 274.918 222.694C282.948 227.948 280.488 240.639 280.488 240.639C295.128 231.52 305.811 231.508 315.245 231.537C315.245 231.537 319.831 220.646 311.801 215.393C305.631 211.357 308.941 208.261 300.878 201.717C296.431 198.108 290.434 195.525 287.005 192.138C280.199 185.413 281.799 176.61 272.352 173.511C259.306 175.509 238.782 179.772 220.184 188.446C229.338 188.469 231.086 196.858 237.893 203.583C241.322 206.971 254.831 208.612 260.116 210.819Z" fill="#FF9C9B"/>
<path fill-rule="evenodd" clip-rule="evenodd" d="M300.879 201.717C308.942 208.261 305.631 211.357 311.801 215.393C319.832 220.646 315.245 231.537 315.245 231.537C319.741 231.551 323.954 231.574 328.176 230.625C331.216 229.942 333.791 228.736 335.899 227.129C354.858 212.667 336.087 165.623 279.118 172.578C277.201 172.812 274.922 173.118 272.352 173.511C281.799 176.611 280.199 185.414 287.006 192.138C290.435 195.525 296.431 198.108 300.879 201.717Z" fill="#FF5A58"/>
<path fill-rule="evenodd" clip-rule="evenodd" d="M280.489 240.639C276.237 243.287 271.652 246.703 266.667 251.109C260.223 256.804 253.021 263.441 245.644 269.842C234.83 279.226 223.642 288.106 213.921 292.78C210.307 294.517 206.895 295.673 203.781 296.058C185.942 298.261 171.162 294.709 162.16 282.301C161.458 299.681 171.333 321.422 198.421 320.028C198.421 320.028 221.84 337.31 255.982 321.422C255.982 321.422 291.817 322.258 302.539 291.318C302.539 291.318 331.601 293.827 338.655 268.183C351.635 255.362 345.616 235.4 335.899 227.129C333.791 228.736 331.217 229.942 328.177 230.625C323.955 231.574 319.742 231.551 315.246 231.537C305.811 231.508 295.128 231.52 280.489 240.639Z" fill="white"/>
<path d="M349.982 249.104C349.726 241.196 346.482 233.003 341.48 227.2C346.005 221.952 347.927 214.511 346.474 206.115C344.572 195.121 337.307 184.801 326.541 177.799C317.715 172.058 302.24 165.82 278.644 168.7C264.296 170.452 236.72 175.226 213.255 187.514C201.817 193.504 184.724 204.847 171.054 218.719C154.917 235.095 147.835 250.831 150.575 264.228C152.123 271.796 154.682 278.226 158.224 283.477C158.08 295.359 162.401 306.742 169.885 314.089C176.782 320.859 186.237 324.268 197.31 323.98C199.656 325.456 205.306 328.595 213.52 330.489C217.295 331.36 221.923 332.026 227.249 332.026C235.603 332.026 245.67 330.387 256.842 325.325C259.538 325.278 267.545 324.851 276.547 321.654C290.211 316.8 300.067 307.716 305.208 295.289C308.332 295.249 313.534 294.863 319.13 293.092C330.777 289.406 338.711 281.507 342.135 270.212C347.536 264.5 350.246 257.225 349.982 249.104ZM322.281 184.348C331.231 190.169 337.243 198.588 338.775 207.446C340.127 215.26 337.828 224.451 327.32 226.813C325.028 227.328 322.722 227.523 320.274 227.595C321.038 221.963 319.668 215.87 313.94 212.123C311.931 210.81 311.528 209.917 310.724 208.138C309.681 205.83 308.252 202.67 303.341 198.685C301.119 196.881 298.66 195.38 296.283 193.93C293.721 192.366 291.301 190.889 289.752 189.359C287.502 187.137 286.348 184.556 285.127 181.823C284.297 179.966 283.421 178.008 282.176 176.18C301.966 174.312 314.861 179.522 322.281 184.348ZM284.66 233.839C284.277 229.009 282.573 223.033 277.056 219.425C275.148 218.177 274.264 217.062 273.145 215.651C271.13 213.111 268.847 210.232 261.622 207.214C259.329 206.256 256.002 205.466 252.481 204.631C248.558 203.7 241.992 202.141 240.639 200.804C238.71 198.899 237.184 196.768 235.707 194.708C234.15 192.534 232.496 190.229 230.373 188.363C245.728 182.423 261.462 179.194 271.959 177.531C275.097 178.829 276.233 181.073 277.993 185.011C279.387 188.129 280.967 191.664 284.26 194.917C286.455 197.085 289.382 198.871 292.212 200.599C294.369 201.915 296.6 203.276 298.417 204.75C301.893 207.572 302.724 209.41 303.604 211.356C304.609 213.58 305.749 216.101 309.662 218.661C313.064 220.886 312.916 224.942 312.343 227.633C304.653 227.691 295.757 228.324 284.66 233.839ZM176.619 224.203C178.732 222.059 180.932 219.979 183.18 217.973C185.721 218.485 188.778 220.41 192.477 223.827C193.228 224.521 194.178 224.864 195.127 224.864C196.178 224.864 197.227 224.442 197.997 223.608C199.461 222.024 199.363 219.552 197.778 218.088C194.992 215.514 192.406 213.592 189.94 212.265C199.599 204.536 209.479 198.311 216.88 194.435C218.232 193.726 219.603 193.045 220.986 192.388C224.489 192.686 226.249 194.921 229.356 199.258C230.945 201.476 232.746 203.989 235.148 206.362C237.855 209.037 243.054 210.423 250.676 212.232C253.738 212.959 256.905 213.711 258.611 214.423C263.977 216.664 265.389 218.444 267.024 220.506C268.331 222.154 269.812 224.022 272.779 225.962C277.094 228.785 277.084 235.388 276.839 238.344C272.859 240.944 268.618 244.17 264.08 248.181C261.506 250.455 258.856 252.84 256.05 255.366C254.153 257.072 252.206 258.824 250.224 260.594C249.761 256.248 248.046 251.513 243.382 248.461C241.549 247.262 240.85 246.219 239.882 244.776C238.199 242.267 236.106 239.144 228.827 236.104C227.816 235.682 226.593 235.292 225.088 234.913C222.995 234.387 220.873 235.654 220.346 237.746C219.818 239.838 221.087 241.962 223.179 242.489C224.303 242.772 225.165 243.042 225.816 243.313C230.926 245.448 232.015 247.071 233.393 249.127C234.529 250.822 235.944 252.931 239.105 254.999C243.554 257.909 242.643 265.055 242.121 267.721C234.188 274.566 226.05 281.11 218.627 285.722C218.625 278.676 216.223 272.236 209.45 270.421C208.702 270.221 208.1 269.651 206.809 268.383C204.7 266.311 201.512 263.18 194.76 260.359C192.16 259.273 189.263 258.816 186.462 258.375C183.586 257.922 180.326 257.407 179.197 256.293C177.331 254.449 175.729 252.322 174.18 250.264C171.38 246.544 168.3 242.457 163.596 240.52C167.226 234.466 172.06 228.829 176.619 224.203ZM160.075 247.552C162.905 248.451 164.966 251.016 167.938 254.964C169.576 257.14 171.433 259.606 173.706 261.851C176.624 264.735 181.007 265.425 185.246 266.093C187.591 266.463 190.015 266.845 191.749 267.569C197.111 269.809 199.452 272.109 201.334 273.957C202.97 275.565 204.662 277.228 207.428 277.969C211.218 278.984 211.026 286.015 210.437 290.092C207.89 291.183 205.494 291.91 203.302 292.181C177.682 295.345 162.939 285.689 158.23 262.663C157.215 257.7 158.084 252.564 160.075 247.552ZM335.909 265.404C335.422 265.885 335.07 266.486 334.888 267.147C332.357 276.346 326.339 282.545 316.999 285.57C309.664 287.946 302.932 287.432 302.874 287.427C301.091 287.268 299.433 288.349 298.847 290.039C294.834 301.618 286.53 309.749 274.163 314.208C264.635 317.644 256.148 317.513 256.072 317.516C255.471 317.503 254.877 317.626 254.333 317.88C241.12 324.028 228.104 325.737 215.646 322.96C206.314 320.88 200.783 316.916 200.739 316.884C200.012 316.348 199.12 316.072 198.219 316.127C188.696 316.618 181.003 314.055 175.358 308.514C171.272 304.503 168.368 298.914 166.971 292.66C167.911 293.353 168.885 294.003 169.896 294.606C176.556 298.575 184.772 300.571 194.405 300.571C197.541 300.571 200.827 300.359 204.259 299.935C220.414 297.941 242.122 278.408 261.276 261.174C264.068 258.661 266.706 256.288 269.254 254.037C290.376 235.368 303.653 235.416 315.373 235.444C320.028 235.461 324.426 235.472 329.033 234.437C331.343 233.917 333.461 233.12 335.373 232.087C339.315 236.54 341.972 243.152 342.173 249.359C342.315 253.715 341.343 260.036 335.909 265.404Z" fill="black"/>
<path d="M311.438 246.899H311.436C309.278 246.899 307.53 248.648 307.53 250.805C307.53 252.962 309.281 254.712 311.438 254.712C313.596 254.712 315.345 252.962 315.345 250.805C315.345 248.648 313.596 246.899 311.438 246.899Z" fill="black"/>
<path d="M284.481 269.165H284.478C282.32 269.165 280.573 270.915 280.573 273.072C280.573 275.229 282.323 276.978 284.481 276.978C286.638 276.978 288.387 275.229 288.387 273.072C288.387 270.915 286.638 269.165 284.481 269.165Z" fill="black"/>
<path d="M248.737 293.19H248.734C246.576 293.19 244.829 294.939 244.829 297.097C244.829 299.254 246.579 301.003 248.737 301.003C250.894 301.003 252.643 299.254 252.643 297.097C252.643 294.939 250.894 293.19 248.737 293.19Z" fill="black"/>
<path d="M207.296 237.552C209.453 237.552 211.202 235.802 211.202 233.645C211.202 231.488 209.453 229.739 207.296 229.739H207.293C205.135 229.739 203.388 231.488 203.388 233.645C203.388 235.802 205.138 237.552 207.296 237.552Z" fill="black"/>
</g>
<defs>
<linearGradient id="paint0_linear_1_13" x1="0" y1="250" x2="500" y2="250" gradientUnits="userSpaceOnUse">
<stop stop-color="#FFECB3"/>
<stop offset="1" stop-color="#FFB3D2"/>
</linearGradient>
<clipPath id="clip0_1_13">
<rect width="200" height="200" fill="white" transform="translate(150 150)"/>
</clipPath>
</defs>
</svg>
