<svg width="500" height="500" viewBox="0 0 500 500" fill="none" xmlns="http://www.w3.org/2000/svg">
<rect width="500" height="500" fill="url(#paint0_linear_108_2)"/>
<path d="M211.009 163.627C215.937 160.164 223.656 158.333 233.333 158.333H266.667C276.344 158.333 284.063 160.164 288.991 163.627C293.13 166.535 295.317 170.618 295.317 175.433C295.317 182.64 290.593 190.758 282.679 197.147C275.258 203.137 265.997 206.89 256.119 207.991C259.163 205.343 263.264 201.622 267.276 197.496C278.179 186.283 282.557 178.203 280.659 172.793C279.233 168.728 274.524 166.667 266.667 166.667H233.333C225.476 166.667 220.767 168.728 219.341 172.793C217.444 178.203 221.821 186.283 232.724 197.495C236.736 201.621 240.837 205.343 243.881 207.991C234.003 206.89 224.742 203.136 217.321 197.146C209.407 190.757 204.683 182.64 204.683 175.433C204.683 170.618 206.871 166.535 211.009 163.627V163.627ZM179.222 323.55L169.14 320.931C168.875 320.862 168.626 320.742 168.408 320.577C168.189 320.412 168.006 320.206 167.867 319.97C167.728 319.734 167.638 319.473 167.6 319.202C167.562 318.931 167.578 318.655 167.647 318.39L170.266 308.308L184.381 311.974L181.762 322.056C181.694 322.321 181.573 322.569 181.409 322.788C181.244 323.006 181.038 323.19 180.802 323.329C180.566 323.468 180.305 323.558 180.034 323.596C179.763 323.634 179.487 323.618 179.222 323.55V323.55ZM296.569 341.667H200C199.448 341.667 198.918 341.447 198.527 341.056C198.136 340.666 197.917 340.136 197.917 339.583V329.167H298.652V339.583C298.652 340.136 298.433 340.666 298.042 341.056C297.652 341.447 297.122 341.667 296.569 341.667V341.667ZM288.236 325H211.764V304.977L233.514 281.25H266.486L288.236 304.977V325ZM310.315 308.125L309.069 303.326V239.583C309.069 239.031 308.85 238.501 308.459 238.11C308.068 237.719 307.538 237.5 306.986 237.5C306.433 237.5 305.903 237.719 305.513 238.11C305.122 238.501 304.902 239.031 304.902 239.583V321.131C304.901 322.157 304.493 323.14 303.768 323.865C303.043 324.591 302.059 324.999 301.033 325H292.402V304.167C292.402 303.645 292.207 303.143 291.855 302.759L268.938 277.759C268.743 277.546 268.506 277.376 268.241 277.26C267.977 277.143 267.691 277.083 267.402 277.083H232.598C232.309 277.083 232.023 277.143 231.759 277.26C231.494 277.376 231.257 277.546 231.062 277.759L208.145 302.759C207.793 303.143 207.598 303.645 207.598 304.167V325H198.967C197.941 324.999 196.958 324.591 196.232 323.865C195.507 323.14 195.099 322.157 195.098 321.131V239.583C195.098 239.031 194.878 238.501 194.487 238.11C194.097 237.719 193.567 237.5 193.014 237.5C192.462 237.5 191.932 237.719 191.541 238.11C191.15 238.501 190.931 239.031 190.931 239.583V303.326L189.685 308.125C189.625 308.354 189.477 308.55 189.273 308.67C189.069 308.789 188.826 308.824 188.596 308.765L187.445 308.467L180.96 306.783L167.96 303.406C167.741 303.349 167.552 303.21 167.43 303.019C167.309 302.828 167.265 302.597 167.307 302.375L185.291 207.933C185.696 205.829 186.523 203.83 187.722 202.055C188.922 200.28 190.468 198.767 192.269 197.607L204.93 189.485C207.551 193.644 210.856 197.33 214.704 200.389C221.771 206.093 230.364 209.923 239.583 211.575V262.5C239.583 263.053 239.803 263.582 240.194 263.973C240.584 264.364 241.114 264.583 241.667 264.583C242.219 264.583 242.749 264.364 243.14 263.973C243.531 263.582 243.75 263.053 243.75 262.5V212.169C245.826 212.389 247.912 212.5 250 212.5H250.003C252.091 212.5 254.177 212.389 256.253 212.169V262.5C256.253 263.053 256.473 263.582 256.863 263.973C257.254 264.364 257.784 264.583 258.336 264.583C258.889 264.583 259.419 264.364 259.81 263.973C260.2 263.582 260.42 263.053 260.42 262.5V211.575C269.639 209.923 278.232 206.093 285.299 200.389C289.147 197.33 292.452 193.644 295.073 189.485L307.734 197.607C309.535 198.767 311.082 200.281 312.281 202.056C313.481 203.831 314.308 205.831 314.712 207.935L332.696 302.376C332.738 302.599 332.694 302.829 332.573 303.02C332.452 303.211 332.262 303.35 332.043 303.407L323.44 305.641L312.559 308.467H312.557L311.407 308.764C311.293 308.794 311.175 308.801 311.058 308.785C310.942 308.77 310.83 308.731 310.728 308.671C310.627 308.612 310.538 308.533 310.467 308.439C310.396 308.346 310.345 308.239 310.315 308.125V308.125ZM318.238 322.057L315.619 311.975L318.87 311.131L329.733 308.31L332.352 318.392C332.421 318.657 332.437 318.933 332.399 319.204C332.362 319.474 332.271 319.735 332.132 319.971C331.994 320.207 331.81 320.413 331.591 320.578C331.373 320.743 331.124 320.863 330.86 320.932L320.777 323.551C320.242 323.69 319.674 323.61 319.198 323.33C318.722 323.05 318.376 322.592 318.238 322.057V322.057Z" fill="#FF9F29"/>
<defs>
<linearGradient id="paint0_linear_108_2" x1="0" y1="250" x2="500" y2="250" gradientUnits="userSpaceOnUse">
<stop stop-color="#1A224D"/>
<stop offset="1" stop-color="#111111"/>
</linearGradient>
</defs>
</svg>
