<?xml version="1.0" standalone="no"?><svg xmlns="http://www.w3.org/2000/svg" viewBox="0 0 1440 320"><path fill="#fff" fill-opacity="1" d="M0,128L34.3,117.3C68.6,107,137,85,206,106.7C274.3,128,343,192,411,202.7C480,213,549,171,617,144C685.7,117,754,107,823,96C891.4,85,960,75,1029,80C1097.1,85,1166,107,1234,106.7C1302.9,107,1371,85,1406,74.7L1440,64L1440,320L1405.7,320C1371.4,320,1303,320,1234,320C1165.7,320,1097,320,1029,320C960,320,891,320,823,320C754.3,320,686,320,617,320C548.6,320,480,320,411,320C342.9,320,274,320,206,320C137.1,320,69,320,34,320L0,320Z"></path></svg>